<?xml version="1.0" standalone="no"?>
<!DOCTYPE svg PUBLIC "-//W3C//DTD SVG 1.1//EN" "http://www.w3.org/Graphics/SVG/1.1/DTD/svg11.dtd" >
<svg xmlns="http://www.w3.org/2000/svg">
<metadata>
<json>
<![CDATA[
{
	"fontFamily": "Jam-icons",
	"majorVersion": 3,
	"minorVersion": 1,
	"version": "Version 3.1",
	"fontId": "Jam-icons",
	"psName": "Jam-icons",
	"subFamily": "Regular",
	"fullName": "Jam-icons",
	"description": "Font generated by IcoMoon."
}
]]>
</json>
</metadata>
<defs>
<font id="Jam-icons" horiz-adv-x="1024">
<font-face units-per-em="1024" ascent="960" descent="-64" />
<missing-glyph horiz-adv-x="1024" />
<glyph unicode="&#x20;" horiz-adv-x="512" d="" />
<glyph unicode="&#xe901;" glyph-name="accessibility" data-tags="accessibility" d="M504.715 227.429l-23.698-225.823c-4.222-40.237-40.213-69.427-80.388-65.198s-69.319 40.276-65.097 80.513l52.841 503.537h-242.089c-40.396 0-73.143 32.798-73.143 73.257s32.747 73.257 73.143 73.257h731.429c40.396 0 73.143-32.798 73.143-73.257s-32.747-73.257-73.143-73.257h-242.089l52.841-503.537c4.222-40.237-24.922-76.284-65.097-80.513s-76.165 24.961-80.388 65.198l-23.698 225.823h-14.569zM512 666.972c-80.791 0-146.286 65.597-146.286 146.514s65.494 146.514 146.286 146.514c80.791 0 146.286-65.597 146.286-146.514s-65.494-146.514-146.286-146.514z" />
<glyph unicode="&#xe902;" glyph-name="activity" data-tags="activity" d="M388.949 373.376l-47.616 375.509-47.616-375.467h-165.717c-23.552 0-42.667 18.645-42.667 41.643 0.288 23.108 19.088 41.73 42.237 41.73 0.151 0 0.302-0.001 0.453-0.002h90.26l38.4 302.336c5.717 45.739 48.384 78.165 95.104 72.533 38.827-4.693 69.376-34.56 74.197-72.533l38.357-302.336h84.224l48.768-309.163 48.725 309.12h249.941c23.552 0 42.667-18.688 42.667-41.728s-19.115-41.685-42.667-41.685h-176.725l-37.589-238.379c-6.191-36.276-34.83-64.366-70.88-69.662l-0.458-0.055c-46.592-7.040-90.155 24.192-97.365 69.717l-37.547 238.379h-86.528z" />
<glyph unicode="&#xe904;" glyph-name="alarm-clock" data-tags="alarm-clock" d="M554.667 448h85.333c23.564 0 42.667-19.103 42.667-42.667s-19.103-42.667-42.667-42.667v0h-128c-23.564 0-42.667 19.103-42.667 42.667v0 213.333c0 23.564 19.103 42.667 42.667 42.667s42.667-19.103 42.667-42.667v0-170.667zM880.213 514.645c10.018-32.624 15.787-70.124 15.787-108.972 0-212.077-171.923-384-384-384s-384 171.923-384 384c0 38.848 5.769 76.349 16.496 111.692l-0.71-2.72c-36.204 38.152-58.471 89.839-58.471 146.726 0 117.821 95.513 213.333 213.333 213.333 70.522 0 133.052-34.219 171.892-86.959l0.414-0.588c12.313 1.385 26.587 2.175 41.045 2.175s28.732-0.79 42.781-2.33l-1.735 0.154c39.253 53.329 101.783 87.548 172.305 87.548 117.821 0 213.333-95.513 213.333-213.333 0-56.887-22.266-108.574-58.559-146.821l0.089 0.094zM840.192 604.8c8.329 16.518 13.207 36.003 13.207 56.627 0 70.692-57.308 128-128 128-28.764 0-55.313-9.488-76.686-25.505l0.332 0.238c80.844-31.564 146.604-87.065 190.193-157.7l0.953-1.66zM374.912 764.16c-21.041 15.779-47.589 25.267-76.354 25.267-70.692 0-128-57.308-128-128 0-20.624 4.878-40.109 13.542-57.364l-0.335 0.737c44.542 72.295 110.303 127.796 188.528 158.456l2.618 0.904zM512 106.667c164.949 0 298.667 133.718 298.667 298.667s-133.718 298.667-298.667 298.667v0c-164.949 0-298.667-133.718-298.667-298.667s133.718-298.667 298.667-298.667v0z" />
<glyph unicode="&#xe905;" glyph-name="alarm-clock-f" data-tags="alarm-clock-f" d="M553.045 744.533c39.253 53.329 101.783 87.548 172.305 87.548 117.821 0 213.333-95.513 213.333-213.333 0-56.887-22.266-108.574-58.559-146.821l0.089 0.094c-44.751 146.967-171.347 255.186-325.433 272.313l-1.735 0.157zM143.787 471.936c-36.204 38.152-58.471 89.839-58.471 146.726 0 117.821 95.513 213.333 213.333 213.333 70.522 0 133.052-34.219 171.892-86.959l0.414-0.588c-155.821-17.283-282.417-125.503-326.453-269.747l-0.715-2.723zM512 64c-164.949 0-298.667 133.718-298.667 298.667s133.718 298.667 298.667 298.667v0c164.949 0 298.667-133.718 298.667-298.667s-133.718-298.667-298.667-298.667v0zM554.667 405.333v170.667c0 23.564-19.103 42.667-42.667 42.667s-42.667-19.103-42.667-42.667v0-213.333c0-23.564 19.103-42.667 42.667-42.667v0h128c23.564 0 42.667 19.103 42.667 42.667s-19.103 42.667-42.667 42.667v0h-85.333z" />
<glyph unicode="&#xe906;" glyph-name="alert" data-tags="alert" d="M512 21.333c-235.648 0-426.667 191.019-426.667 426.667s191.019 426.667 426.667 426.667 426.667-191.019 426.667-426.667-191.019-426.667-426.667-426.667zM512 106.667c188.513 0 341.333 152.82 341.333 341.333s-152.82 341.333-341.333 341.333v0c-188.513 0-341.333-152.82-341.333-341.333s152.82-341.333 341.333-341.333v0zM512 661.333c23.564 0 42.667-19.103 42.667-42.667v0-213.333c0-23.564-19.103-42.667-42.667-42.667s-42.667 19.103-42.667 42.667v0 213.333c0 23.564 19.103 42.667 42.667 42.667v0zM512 234.667c-23.564 0-42.667 19.103-42.667 42.667s19.103 42.667 42.667 42.667v0c23.564 0 42.667-19.103 42.667-42.667s-19.103-42.667-42.667-42.667v0z" />
<glyph unicode="&#xe907;" glyph-name="alert-f" data-tags="alert-f" d="M512 25.899c-235.648 0-426.667 191.019-426.667 426.667 0 235.605 191.019 426.667 426.667 426.667s426.667-191.061 426.667-426.667c0-235.648-191.019-426.667-426.667-426.667zM512 665.899c-23.564 0-42.667-19.103-42.667-42.667v0-213.333c0-23.564 19.103-42.667 42.667-42.667s42.667 19.103 42.667 42.667v0 213.333c0 23.564-19.103 42.667-42.667 42.667v0zM512 239.232c23.564 0 42.667 19.103 42.667 42.667s-19.103 42.667-42.667 42.667v0c-23.564 0-42.667-19.103-42.667-42.667s19.103-42.667 42.667-42.667v0z" />
<glyph unicode="&#xe908;" glyph-name="alien" data-tags="alien" d="M512 21.333c-192 0-384 257.28-384 469.333 0 212.077 171.923 384 384 384s384-171.923 384-384v0c0-212.053-192-469.333-384-469.333zM512 106.667c133.973 0 298.667 207.744 298.667 384 0 164.949-133.718 298.667-298.667 298.667s-298.667-133.718-298.667-298.667v0c0-176.256 164.693-384 298.667-384zM427.776 285.013c-22.571-8.192-99.797 24.704-123.947 91.136-24.192 66.432 14.805 141.611 36.395 149.461s99.797-24.661 123.947-91.093c24.192-66.432-13.824-141.227-36.395-149.461zM596.224 285.013c-22.571 8.235-60.587 83.072-36.395 149.504 24.149 66.432 102.357 98.987 123.947 91.093 21.589-7.851 60.587-83.029 36.395-149.461-24.149-66.432-101.376-99.328-123.947-91.093z" />
<glyph unicode="&#xe909;" glyph-name="alien-f" data-tags="alien-f" d="M512 6.059c-192 0-384 257.28-384 469.333 0 212.077 171.923 384 384 384s384-171.923 384-384v0c0-212.053-192-469.333-384-469.333zM427.776 269.781c22.571 8.192 60.587 83.029 36.395 149.461-24.149 66.432-102.357 98.987-123.947 91.093-21.589-7.851-60.587-83.029-36.395-149.461 24.149-66.432 101.376-99.285 123.947-91.093zM596.224 269.781c22.571-8.192 99.797 24.661 123.947 91.093 24.192 66.432-14.805 141.611-36.395 149.461-21.589 7.893-99.797-24.661-123.947-91.093-24.192-66.432 13.824-141.227 36.395-149.461z" />
<glyph unicode="&#xe90a;" glyph-name="align-center" data-tags="align-center" d="M341.333 661.333h341.333c23.564 0 42.667-19.103 42.667-42.667s-19.103-42.667-42.667-42.667v0h-341.333c-23.564 0-42.667 19.103-42.667 42.667s19.103 42.667 42.667 42.667v0zM341.333 320h341.333c23.564 0 42.667-19.103 42.667-42.667s-19.103-42.667-42.667-42.667v0h-341.333c-23.564 0-42.667 19.103-42.667 42.667s19.103 42.667 42.667 42.667v0zM256 490.667h512c23.564 0 42.667-19.103 42.667-42.667s-19.103-42.667-42.667-42.667v0h-512c-23.564 0-42.667 19.103-42.667 42.667s19.103 42.667 42.667 42.667v0z" />
<glyph unicode="&#xe90b;" glyph-name="align-justify" data-tags="align-justify" d="M256 661.333h512c23.564 0 42.667-19.103 42.667-42.667s-19.103-42.667-42.667-42.667v0h-512c-23.564 0-42.667 19.103-42.667 42.667s19.103 42.667 42.667 42.667v0zM256 320h512c23.564 0 42.667-19.103 42.667-42.667s-19.103-42.667-42.667-42.667v0h-512c-23.564 0-42.667 19.103-42.667 42.667s19.103 42.667 42.667 42.667v0zM256 490.667h512c23.564 0 42.667-19.103 42.667-42.667s-19.103-42.667-42.667-42.667v0h-512c-23.564 0-42.667 19.103-42.667 42.667s19.103 42.667 42.667 42.667v0z" />
<glyph unicode="&#xe90c;" glyph-name="align-left" data-tags="align-left" d="M256 661.333h256c23.564 0 42.667-19.103 42.667-42.667s-19.103-42.667-42.667-42.667v0h-256c-23.564 0-42.667 19.103-42.667 42.667s19.103 42.667 42.667 42.667v0zM256 320h341.333c23.564 0 42.667-19.103 42.667-42.667s-19.103-42.667-42.667-42.667v0h-341.333c-23.564 0-42.667 19.103-42.667 42.667s19.103 42.667 42.667 42.667v0zM256 490.667h512c23.564 0 42.667-19.103 42.667-42.667s-19.103-42.667-42.667-42.667v0h-512c-23.564 0-42.667 19.103-42.667 42.667s19.103 42.667 42.667 42.667v0z" />
<glyph unicode="&#xe90d;" glyph-name="align-right" data-tags="align-right" d="M512 661.333h256c23.564 0 42.667-19.103 42.667-42.667s-19.103-42.667-42.667-42.667v0h-256c-23.564 0-42.667 19.103-42.667 42.667s19.103 42.667 42.667 42.667v0zM426.667 320h341.333c23.564 0 42.667-19.103 42.667-42.667s-19.103-42.667-42.667-42.667v0h-341.333c-23.564 0-42.667 19.103-42.667 42.667s19.103 42.667 42.667 42.667v0zM256 490.667h512c23.564 0 42.667-19.103 42.667-42.667s-19.103-42.667-42.667-42.667v0h-512c-23.564 0-42.667 19.103-42.667 42.667s19.103 42.667 42.667 42.667v0z" />
<glyph unicode="&#xe90f;" glyph-name="anchor" data-tags="anchor" d="M807.68 362.752c-22.382 1.451-39.987 19.961-39.987 42.582 0 23.564 19.103 42.667 42.667 42.667 0.108 0 0.216 0 0.324-0.001h85.316c23.564 0 42.667-19.103 42.667-42.667s-19.103-42.667-42.667-42.667v0h-2.347c-22.247-192.894-184.622-341.27-381.653-341.27s-359.407 148.377-381.486 339.489l-0.167 1.781h-2.347c-23.564 0-42.667 19.103-42.667 42.667s19.103 42.667 42.667 42.667v0h85.333c0.091 0.001 0.199 0.001 0.307 0.001 23.564 0 42.667-19.103 42.667-42.667 0-22.621-17.605-41.131-39.861-42.576l-0.126-0.007c19.481-131.158 121.861-233.553 251.376-252.856l1.637-0.2v429.013c-73.991 19.803-127.587 86.245-127.587 165.206 0 94.129 76.164 170.468 170.227 170.751h0.027c0.050 0 0.109 0 0.169 0 94.257 0 170.667-76.41 170.667-170.667 0-79.156-53.888-145.725-126.979-165.024l-1.19-0.267v-429.013c131.152 19.503 233.533 121.898 252.813 251.42l0.2 1.636zM512 618.667c47.128 0 85.333 38.205 85.333 85.333s-38.205 85.333-85.333 85.333v0c-47.128 0-85.333-38.205-85.333-85.333s38.205-85.333 85.333-85.333v0z" />
<glyph unicode="&#xe913;" glyph-name="aperture" data-tags="aperture" d="M433.664 400.768l77.525-44.757 79.787 46.080v88.149l-80.683 46.507-76.629-47.872v-88.107zM348.331 450.048v297.557c-78.534-43.59-137.171-114.985-163.165-200.584l-0.633-2.424 163.84-94.549zM170.709 454.059l-0.043-6.059c0-0.146 0-0.318 0-0.491 0-90.8 35.588-173.288 93.576-234.277l-0.136 0.144 161.707 93.397-255.104 147.285zM433.664 589.483l247.808 154.88c-48.502 28.278-106.764 44.971-168.926 44.971-0.192 0-0.384 0-0.576 0h0.030c-26.965 0-53.163-3.115-78.336-9.045v-190.805zM753.792 688.896l-161.536-100.907 260.907-150.656c0.116 3.312 0.181 7.203 0.181 11.11 0 93.908-38.041 178.93-99.555 240.498l0.003-0.003zM676.309 440.917v-292.181c77.016 42.962 134.772 112.644 161.299 196.231l0.664 2.425-161.963 93.525zM335.275 155.904c50.211-30.92 111.048-49.238 176.162-49.238 0.198 0 0.396 0 0.593 0.001h-0.030c27.179 0 53.632 3.157 78.933 9.173v187.733l-255.659-147.627zM512 21.333c-235.648 0-426.667 191.019-426.667 426.667s191.019 426.667 426.667 426.667 426.667-191.019 426.667-426.667-191.019-426.667-426.667-426.667z" />
<glyph unicode="&#xe917;" glyph-name="archive" data-tags="archive" d="M170.667 661.333h682.667v128h-682.667v-128zM853.333 576v-512c0-23.564-19.103-42.667-42.667-42.667v0h-597.333c-23.564 0-42.667 19.103-42.667 42.667v0 512h-42.667c-23.564 0-42.667 19.103-42.667 42.667v0 213.333c0 23.564 19.103 42.667 42.667 42.667v0h768c23.564 0 42.667-19.103 42.667-42.667v0-213.333c0-23.564-19.103-42.667-42.667-42.667v0h-42.667zM256 106.667h512v469.333h-512v-469.333zM426.667 277.333h170.667c23.564 0 42.667-19.103 42.667-42.667s-19.103-42.667-42.667-42.667v0h-170.667c-23.564 0-42.667 19.103-42.667 42.667s19.103 42.667 42.667 42.667v0z" />
<glyph unicode="&#xe918;" glyph-name="archive-f" data-tags="archive-f" d="M810.667 661.333h-682.667c-23.564 0-42.667 19.103-42.667 42.667v0 128c0 23.564 19.103 42.667 42.667 42.667v0h768c23.564 0 42.667-19.103 42.667-42.667v0-128c0-23.564-19.103-42.667-42.667-42.667v0h-85.333zM853.333 576v-512c0-23.564-19.103-42.667-42.667-42.667v0h-597.333c-23.564 0-42.667 19.103-42.667 42.667v0 512h682.667zM426.667 277.333c-23.564 0-42.667-19.103-42.667-42.667s19.103-42.667 42.667-42.667v0h170.667c23.564 0 42.667 19.103 42.667 42.667s-19.103 42.667-42.667 42.667v0h-170.667z" />
<glyph unicode="&#xe919;" glyph-name="arrow-circle-down" data-tags="arrow-circle-down" d="M512 21.333c-235.648 0-426.667 191.019-426.667 426.667s191.019 426.667 426.667 426.667 426.667-191.019 426.667-426.667-191.019-426.667-426.667-426.667zM512 106.667c188.513 0 341.333 152.82 341.333 341.333s-152.82 341.333-341.333 341.333v0c-188.513 0-341.333-152.82-341.333-341.333s152.82-341.333 341.333-341.333v0zM469.333 380.331v238.336c0 23.564 19.103 42.667 42.667 42.667s42.667-19.103 42.667-42.667v0-238.336l108.203 108.203c7.665 7.41 18.12 11.977 29.641 11.977 23.564 0 42.667-19.103 42.667-42.667 0-11.521-4.567-21.976-11.989-29.653l-181.023-181.023c-7.706-7.749-18.376-12.545-30.165-12.545s-22.459 4.796-30.163 12.544l-181.037 181.037c-7.41 7.665-11.977 18.12-11.977 29.641 0 23.564 19.103 42.667 42.667 42.667 11.521 0 21.976-4.567 29.653-11.989l108.191-108.191z" />
<glyph unicode="&#xe91a;" glyph-name="arrow-circle-down-f" data-tags="arrow-circle-down-f" d="M481.835 247.168c7.706-7.749 18.376-12.545 30.165-12.545s22.459 4.796 30.163 12.544l181.037 181.037c8.036 7.769 13.026 18.647 13.026 30.69 0 23.564-19.103 42.667-42.667 42.667-12.043 0-22.92-4.989-30.678-13.014l-108.215-108.215v238.336c0 23.564-19.103 42.667-42.667 42.667s-42.667-19.103-42.667-42.667v0-238.336l-108.203 108.203c-7.769 8.036-18.647 13.026-30.69 13.026-23.564 0-42.667-19.103-42.667-42.667 0-12.043 4.989-22.92 13.014-30.678l181.047-181.047zM512 21.333c-235.648 0-426.667 191.019-426.667 426.667s191.019 426.667 426.667 426.667 426.667-191.019 426.667-426.667-191.019-426.667-426.667-426.667z" />
<glyph unicode="&#xe91b;" glyph-name="arrow-circle-down-left" data-tags="arrow-circle-down-left" d="M512 21.333c-235.648 0-426.667 191.019-426.667 426.667s191.019 426.667 426.667 426.667 426.667-191.019 426.667-426.667-191.019-426.667-426.667-426.667zM512 106.667c188.513 0 341.333 152.82 341.333 341.333s-152.82 341.333-341.333 341.333v0c-188.513 0-341.333-152.82-341.333-341.333s152.82-341.333 341.333-341.333v0zM434.005 430.336l168.533 168.533c7.722 7.716 18.386 12.489 30.165 12.489 23.569 0 42.675-19.106 42.675-42.675 0-11.79-4.781-22.463-12.51-30.186l-168.534-168.534h153.003c23.564 0 42.667-19.103 42.667-42.667s-19.103-42.667-42.667-42.667v0h-256c-0.038 0-0.083 0-0.128 0-23.493 0-42.539 19.045-42.539 42.539 0 0.045 0 0.090 0 0.135v-0.007 256c0 23.564 19.103 42.667 42.667 42.667s42.667-19.103 42.667-42.667v0-152.96z" />
<glyph unicode="&#xe91c;" glyph-name="arrow-circle-down-left-f" data-tags="arrow-circle-down-left-f" d="M348.672 327.339c0-0.038 0-0.083 0-0.128 0-23.493 19.045-42.539 42.539-42.539 0.045 0 0.090 0 0.135 0h255.993c23.564 0 42.667 19.103 42.667 42.667s-19.103 42.667-42.667 42.667v0h-153.003l168.533 168.533c7.716 7.722 12.489 18.386 12.489 30.165 0 23.569-19.106 42.675-42.675 42.675-11.79 0-22.463-4.781-30.186-12.51l-168.534-168.534v153.003c0 23.564-19.103 42.667-42.667 42.667s-42.667-19.103-42.667-42.667v0-256zM512 21.333c-235.648 0-426.667 191.019-426.667 426.667s191.019 426.667 426.667 426.667 426.667-191.019 426.667-426.667-191.019-426.667-426.667-426.667z" />
<glyph unicode="&#xe91d;" glyph-name="arrow-circle-down-right" data-tags="arrow-circle-down-right" d="M512 21.333c-235.648 0-426.667 191.019-426.667 426.667s191.019 426.667 426.667 426.667 426.667-191.019 426.667-426.667-191.019-426.667-426.667-426.667zM512 106.667c188.513 0 341.333 152.82 341.333 341.333s-152.82 341.333-341.333 341.333v0c-188.513 0-341.333-152.82-341.333-341.333s152.82-341.333 341.333-341.333v0zM529.664 370.005l-168.533 168.533c-7.704 7.72-12.467 18.375-12.467 30.144 0 23.569 19.106 42.675 42.675 42.675 11.8 0 22.482-4.79 30.207-12.531l168.534-168.534v153.045c0 23.564 19.103 42.667 42.667 42.667s42.667-19.103 42.667-42.667v0-256c0-0.038 0-0.083 0-0.128 0-23.493-19.045-42.539-42.539-42.539-0.045 0-0.090 0-0.135 0h-255.993c-23.564 0-42.667 19.103-42.667 42.667s19.103 42.667 42.667 42.667v0h152.96z" />
<glyph unicode="&#xe91e;" glyph-name="arrow-circle-down-right-f" data-tags="arrow-circle-down-right-f" d="M632.661 284.672c0.038 0 0.083 0 0.128 0 23.493 0 42.539 19.045 42.539 42.539 0 0.045 0 0.090 0 0.135v-0.007 256c0 23.564-19.103 42.667-42.667 42.667s-42.667-19.103-42.667-42.667v0-153.003l-168.533 168.533c-7.72 7.704-18.375 12.467-30.144 12.467-23.569 0-42.675-19.106-42.675-42.675 0-11.8 4.79-22.482 12.531-30.207l168.534-168.534h-153.045c-23.564 0-42.667-19.103-42.667-42.667s19.103-42.667 42.667-42.667v0h256zM512 21.333c-235.648 0-426.667 191.019-426.667 426.667s191.019 426.667 426.667 426.667 426.667-191.019 426.667-426.667-191.019-426.667-426.667-426.667z" />
<glyph unicode="&#xe91f;" glyph-name="arrow-circle-left" data-tags="arrow-circle-left" d="M512 21.333c-235.648 0-426.667 191.019-426.667 426.667s191.019 426.667 426.667 426.667 426.667-191.019 426.667-426.667-191.019-426.667-426.667-426.667zM512 106.667c188.513 0 341.333 152.82 341.333 341.333s-152.82 341.333-341.333 341.333v0c-188.513 0-341.333-152.82-341.333-341.333s152.82-341.333 341.333-341.333v0zM444.331 490.667h238.336c23.564 0 42.667-19.103 42.667-42.667s-19.103-42.667-42.667-42.667v0h-238.336l108.203-108.203c7.41-7.665 11.977-18.12 11.977-29.641 0-23.564-19.103-42.667-42.667-42.667-11.521 0-21.976 4.567-29.653 11.989l-181.023 181.023c-7.749 7.706-12.545 18.376-12.545 30.165s4.796 22.459 12.544 30.163l181.037 181.037c7.665 7.41 18.12 11.977 29.641 11.977 23.564 0 42.667-19.103 42.667-42.667 0-11.521-4.567-21.976-11.989-29.653l-108.191-108.191z" />
<glyph unicode="&#xe920;" glyph-name="arrow-circle-left-f" data-tags="arrow-circle-left-f" d="M311.168 478.165c-7.749-7.706-12.545-18.376-12.545-30.165s4.796-22.459 12.544-30.163l181.037-181.037c7.769-8.036 18.647-13.026 30.69-13.026 23.564 0 42.667 19.103 42.667 42.667 0 12.043-4.989 22.92-13.014 30.678l-108.215 108.215h238.336c23.564 0 42.667 19.103 42.667 42.667s-19.103 42.667-42.667 42.667v0h-238.336l108.203 108.203c8.036 7.769 13.026 18.647 13.026 30.69 0 23.564-19.103 42.667-42.667 42.667-12.043 0-22.92-4.989-30.678-13.014l-181.047-181.047zM512 21.333c-235.648 0-426.667 191.019-426.667 426.667s191.019 426.667 426.667 426.667 426.667-191.019 426.667-426.667-191.019-426.667-426.667-426.667z" />
<glyph unicode="&#xe921;" glyph-name="arrow-circle-right" data-tags="arrow-circle-right" d="M512 21.333c-235.648 0-426.667 191.019-426.667 426.667s191.019 426.667 426.667 426.667 426.667-191.019 426.667-426.667-191.019-426.667-426.667-426.667zM512 106.667c188.513 0 341.333 152.82 341.333 341.333s-152.82 341.333-341.333 341.333v0c-188.513 0-341.333-152.82-341.333-341.333s152.82-341.333 341.333-341.333v0zM579.669 405.333h-238.336c-23.564 0-42.667 19.103-42.667 42.667s19.103 42.667 42.667 42.667v0h238.336l-108.203 108.203c-8.036 7.769-13.026 18.647-13.026 30.69 0 23.564 19.103 42.667 42.667 42.667 12.043 0 22.92-4.989 30.678-13.014l181.047-181.047c7.749-7.706 12.545-18.376 12.545-30.165s-4.796-22.459-12.544-30.163l-181.037-181.037c-7.769-8.036-18.647-13.026-30.69-13.026-23.564 0-42.667 19.103-42.667 42.667 0 12.043 4.989 22.92 13.014 30.678l108.215 108.215z" />
<glyph unicode="&#xe922;" glyph-name="arrow-circle-right-f" data-tags="arrow-circle-right-f" d="M712.832 417.835c7.749 7.706 12.545 18.376 12.545 30.165s-4.796 22.459-12.544 30.163l-181.037 181.037c-7.665 7.41-18.12 11.977-29.641 11.977-23.564 0-42.667-19.103-42.667-42.667 0-11.521 4.567-21.976 11.989-29.653l108.191-108.191h-238.336c-23.564 0-42.667-19.103-42.667-42.667s19.103-42.667 42.667-42.667v0h238.336l-108.203-108.203c-7.41-7.665-11.977-18.12-11.977-29.641 0-23.564 19.103-42.667 42.667-42.667 11.521 0 21.976 4.567 29.653 11.989l181.023 181.023zM512 21.333c-235.648 0-426.667 191.019-426.667 426.667s191.019 426.667 426.667 426.667 426.667-191.019 426.667-426.667-191.019-426.667-426.667-426.667z" />
<glyph unicode="&#xe923;" glyph-name="arrow-circle-up" data-tags="arrow-circle-up" d="M554.667 515.669v-238.336c0-23.564-19.103-42.667-42.667-42.667s-42.667 19.103-42.667 42.667v0 238.336l-108.203-108.203c-7.769-8.036-18.647-13.026-30.69-13.026-23.564 0-42.667 19.103-42.667 42.667 0 12.043 4.989 22.92 13.014 30.678l181.047 181.047c7.706 7.749 18.376 12.545 30.165 12.545s22.459-4.796 30.163-12.544l181.037-181.037c8.036-7.769 13.026-18.647 13.026-30.69 0-23.564-19.103-42.667-42.667-42.667-12.043 0-22.92 4.989-30.678 13.014l-108.215 108.215zM512 21.333c-235.648 0-426.667 191.019-426.667 426.667s191.019 426.667 426.667 426.667 426.667-191.019 426.667-426.667-191.019-426.667-426.667-426.667zM512 106.667c188.513 0 341.333 152.82 341.333 341.333s-152.82 341.333-341.333 341.333v0c-188.513 0-341.333-152.82-341.333-341.333s152.82-341.333 341.333-341.333v0z" />
<glyph unicode="&#xe924;" glyph-name="arrow-circle-up-f" data-tags="arrow-circle-up-f" d="M542.165 648.832c-7.706 7.749-18.376 12.545-30.165 12.545s-22.459-4.796-30.163-12.544l-181.037-181.037c-7.41-7.665-11.977-18.12-11.977-29.641 0-23.564 19.103-42.667 42.667-42.667 11.521 0 21.976 4.567 29.653 11.989l108.191 108.191v-238.336c0-23.564 19.103-42.667 42.667-42.667s42.667 19.103 42.667 42.667v0 238.336l108.203-108.203c7.665-7.41 18.12-11.977 29.641-11.977 23.564 0 42.667 19.103 42.667 42.667 0 11.521-4.567 21.976-11.989 29.653l-181.023 181.023zM512 21.333c-235.648 0-426.667 191.019-426.667 426.667s191.019 426.667 426.667 426.667 426.667-191.019 426.667-426.667-191.019-426.667-426.667-426.667z" />
<glyph unicode="&#xe925;" glyph-name="arrow-circle-up-left" data-tags="arrow-circle-up-left" d="M512 21.333c-235.648 0-426.667 191.019-426.667 426.667s191.019 426.667 426.667 426.667 426.667-191.019 426.667-426.667-191.019-426.667-426.667-426.667zM512 106.667c188.513 0 341.333 152.82 341.333 341.333s-152.82 341.333-341.333 341.333v0c-188.513 0-341.333-152.82-341.333-341.333s152.82-341.333 341.333-341.333v0zM494.336 525.995l168.533-168.533c7.716-7.722 12.489-18.386 12.489-30.165 0-23.569-19.106-42.675-42.675-42.675-11.79 0-22.463 4.781-30.186 12.51l-168.534 168.534v-153.003c0-23.564-19.103-42.667-42.667-42.667s-42.667 19.103-42.667 42.667v0 256c0 0.038 0 0.083 0 0.128 0 23.493 19.045 42.539 42.539 42.539 0.045 0 0.090 0 0.135 0h255.993c23.564 0 42.667-19.103 42.667-42.667s-19.103-42.667-42.667-42.667v0h-152.917z" />
<glyph unicode="&#xe926;" glyph-name="arrow-circle-up-left-f" data-tags="arrow-circle-up-left-f" d="M391.339 611.328c-0.038 0-0.083 0-0.128 0-23.493 0-42.539-19.045-42.539-42.539 0-0.045 0-0.090 0-0.135v0.007-256c0-23.564 19.103-42.667 42.667-42.667s42.667 19.103 42.667 42.667v0 153.003l168.533-168.533c7.722-7.716 18.386-12.489 30.165-12.489 23.569 0 42.675 19.106 42.675 42.675 0 11.79-4.781 22.463-12.51 30.186l-168.534 168.534h153.003c23.564 0 42.667 19.103 42.667 42.667s-19.103 42.667-42.667 42.667v0h-256zM512 21.333c-235.648 0-426.667 191.019-426.667 426.667s191.019 426.667 426.667 426.667 426.667-191.019 426.667-426.667-191.019-426.667-426.667-426.667z" />
<glyph unicode="&#xe927;" glyph-name="arrow-circle-up-right" data-tags="arrow-circle-up-right" d="M512 21.333c-235.648 0-426.667 191.019-426.667 426.667s191.019 426.667 426.667 426.667 426.667-191.019 426.667-426.667-191.019-426.667-426.667-426.667zM512 106.667c188.513 0 341.333 152.82 341.333 341.333s-152.82 341.333-341.333 341.333v0c-188.513 0-341.333-152.82-341.333-341.333s152.82-341.333 341.333-341.333v0zM589.995 465.664l-168.533-168.533c-7.722-7.716-18.386-12.489-30.165-12.489-23.569 0-42.675 19.106-42.675 42.675 0 11.79 4.781 22.463 12.51 30.186l168.534 168.534h-153.003c-23.564 0-42.667 19.103-42.667 42.667s19.103 42.667 42.667 42.667v0h256c0.038 0 0.083 0 0.128 0 23.493 0 42.539-19.045 42.539-42.539 0-0.045 0-0.090 0-0.135v0.007-256c0-23.564-19.103-42.667-42.667-42.667s-42.667 19.103-42.667 42.667v0 152.917z" />
<glyph unicode="&#xe928;" glyph-name="arrow-circle-up-right-f" data-tags="arrow-circle-up-right-f" d="M675.328 568.661c0 0.038 0 0.083 0 0.128 0 23.493-19.045 42.539-42.539 42.539-0.045 0-0.090 0-0.135 0h-255.993c-23.564 0-42.667-19.103-42.667-42.667s19.103-42.667 42.667-42.667v0h153.003l-168.533-168.533c-7.716-7.722-12.489-18.386-12.489-30.165 0-23.569 19.106-42.675 42.675-42.675 11.79 0 22.463 4.781 30.186 12.51l168.534 168.534v-153.003c0-23.564 19.103-42.667 42.667-42.667s42.667 19.103 42.667 42.667v0 256zM512 21.333c-235.648 0-426.667 191.019-426.667 426.667s191.019 426.667 426.667 426.667 426.667-191.019 426.667-426.667-191.019-426.667-426.667-426.667z" />
<glyph unicode="&#xe929;" glyph-name="arrow-down" data-tags="arrow-down" d="M554.667 288.299l168.533 168.533c7.769 8.036 18.647 13.026 30.69 13.026 23.564 0 42.667-19.103 42.667-42.667 0-12.043-4.989-22.92-13.014-30.678l-241.377-241.377c-7.706-7.749-18.376-12.545-30.165-12.545s-22.459 4.796-30.163 12.544l-241.367 241.367c-8.036 7.769-13.026 18.647-13.026 30.69 0 23.564 19.103 42.667 42.667 42.667 12.043 0 22.92-4.989 30.678-13.014l168.545-168.545v409.003c0 23.564 19.103 42.667 42.667 42.667s42.667-19.103 42.667-42.667v0-409.003z" />
<glyph unicode="&#xe92a;" glyph-name="arrow-down-left" data-tags="arrow-down-left" d="M440.661 302.933h238.336c23.564 0 42.667-19.103 42.667-42.667s-19.103-42.667-42.667-42.667v0h-341.333c-0.038 0-0.083 0-0.128 0-23.493 0-42.539 19.045-42.539 42.539 0 0.045 0 0.090 0 0.135v-0.007 341.333c0 23.564 19.103 42.667 42.667 42.667s42.667-19.103 42.667-42.667v0-238.293l289.195 289.195c7.724 7.729 18.397 12.51 30.187 12.51 23.569 0 42.675-19.106 42.675-42.675 0-11.779-4.772-22.444-12.489-30.166l-289.237-289.237z" />
<glyph unicode="&#xe92b;" glyph-name="arrow-down-right" data-tags="arrow-down-right" d="M657.067 363.307v238.293c0 23.564 19.103 42.667 42.667 42.667s42.667-19.103 42.667-42.667v0-341.333c0-0.038 0-0.083 0-0.128 0-23.493-19.045-42.539-42.539-42.539-0.045 0-0.090 0-0.135 0h-341.326c-23.564 0-42.667 19.103-42.667 42.667s19.103 42.667 42.667 42.667v0h238.293l-289.195 289.237c-7.41 7.665-11.977 18.12-11.977 29.641 0 23.564 19.103 42.667 42.667 42.667 11.521 0 21.976-4.567 29.653-11.989l289.225-289.183z" />
<glyph unicode="&#xe92c;" glyph-name="arrow-left" data-tags="arrow-left" d="M358.997 419.968l168.533-168.533c7.15-7.611 11.543-17.885 11.543-29.185 0-23.564-19.103-42.667-42.667-42.667-11.311 0-21.594 4.401-29.229 11.585l0.022-0.020-241.365 241.323c-7.749 7.706-12.545 18.376-12.545 30.165s4.796 22.459 12.544 30.163l241.367 241.367c7.769 8.036 18.647 13.026 30.69 13.026 23.564 0 42.667-19.103 42.667-42.667 0-12.043-4.989-22.92-13.014-30.678l-168.545-168.545h409.003c23.564 0 42.667-19.103 42.667-42.667s-19.103-42.667-42.667-42.667v0h-409.003z" />
<glyph unicode="&#xe92d;" glyph-name="arrow-right" data-tags="arrow-right" d="M665.003 505.301l-168.533 168.533c-7.41 7.665-11.977 18.12-11.977 29.641 0 23.564 19.103 42.667 42.667 42.667 11.521 0 21.976-4.567 29.653-11.989l241.353-241.353c7.749-7.706 12.545-18.376 12.545-30.165s-4.796-22.459-12.544-30.163l-241.367-241.367c-7.769-8.036-18.647-13.026-30.69-13.026-23.564 0-42.667 19.103-42.667 42.667 0 12.043 4.989 22.92 13.014 30.678l168.545 168.545h-409.003c-23.564 0-42.667 19.103-42.667 42.667s19.103 42.667 42.667 42.667v0h409.003z" />
<glyph unicode="&#xe92e;" glyph-name="arrows-corners" data-tags="arrows-corners" d="M128 874.667h256c23.564 0 42.667-19.103 42.667-42.667s-19.103-42.667-42.667-42.667v0h-153.003l622.336-622.336v153.003c0 23.564 19.103 42.667 42.667 42.667s42.667-19.103 42.667-42.667v0-256c0-23.564-19.103-42.667-42.667-42.667v0h-256c-23.564 0-42.667 19.103-42.667 42.667s19.103 42.667 42.667 42.667v0h153.003l-622.336 622.336v-153.003c0-23.564-19.103-42.667-42.667-42.667s-42.667 19.103-42.667 42.667v0 256c0 23.564 19.103 42.667 42.667 42.667v0z" />
<glyph unicode="&#xe92f;" glyph-name="arrows-fullscreen" data-tags="arrows-fullscreen" d="M896 874.667c23.564 0 42.667-19.103 42.667-42.667v0-256c0-23.564-19.103-42.667-42.667-42.667s-42.667 19.103-42.667 42.667v0 153.003l-281.003-281.003 281.003-281.003v153.003c0 23.564 19.103 42.667 42.667 42.667s42.667-19.103 42.667-42.667v0-256c0-23.564-19.103-42.667-42.667-42.667v0h-256c-23.564 0-42.667 19.103-42.667 42.667s19.103 42.667 42.667 42.667v0h153.003l-281.003 281.003-281.003-281.003h153.003c23.564 0 42.667-19.103 42.667-42.667s-19.103-42.667-42.667-42.667v0h-256c-23.564 0-42.667 19.103-42.667 42.667v0 256c0 23.564 19.103 42.667 42.667 42.667s42.667-19.103 42.667-42.667v0-153.003l281.003 281.003-281.003 281.003v-153.003c0-23.564-19.103-42.667-42.667-42.667s-42.667 19.103-42.667 42.667v0 256c0 23.564 19.103 42.667 42.667 42.667v0h256c23.564 0 42.667-19.103 42.667-42.667s-19.103-42.667-42.667-42.667v0h-153.003l281.003-281.003 281.003 281.003h-153.003c-23.564 0-42.667 19.103-42.667 42.667s19.103 42.667 42.667 42.667v0h256z" />
<glyph unicode="&#xe930;" glyph-name="arrows-h" data-tags="arrows-h" d="M231.381 490.837h561.237l-108.245 108.203c-7.716 7.722-12.489 18.386-12.489 30.165 0 23.569 19.106 42.675 42.675 42.675 11.79 0 22.463-4.781 30.186-12.51l180.992-181.035c7.718-7.721 12.492-18.386 12.492-30.165s-4.774-22.445-12.492-30.165l-180.992-180.992c-7.724-7.729-18.397-12.51-30.187-12.51-23.569 0-42.675 19.106-42.675 42.675 0 11.779 4.772 22.444 12.489 30.166v0l108.203 108.16h-561.195l108.245-108.117c7.716-7.722 12.489-18.386 12.489-30.165 0-23.569-19.106-42.675-42.675-42.675-11.79 0-22.463 4.781-30.186 12.51v0l-181.035 180.949c-7.749 7.706-12.545 18.376-12.545 30.165s4.796 22.459 12.544 30.163l180.994 181.037c7.728 7.738 18.409 12.525 30.208 12.525 23.577 0 42.69-19.113 42.69-42.69 0-11.778-4.77-22.442-12.483-30.166v0l-108.245-108.203z" />
<glyph unicode="&#xe931;" glyph-name="arrow-square-down" data-tags="arrow-square-down" d="M256 789.333c-47.128 0-85.333-38.205-85.333-85.333v0-512c0-47.128 38.205-85.333 85.333-85.333v0h512c47.128 0 85.333 38.205 85.333 85.333v0 512c0 47.128-38.205 85.333-85.333 85.333v0h-512zM256 874.667h512c94.257 0 170.667-76.41 170.667-170.667v0-512c0-94.257-76.41-170.667-170.667-170.667v0h-512c-94.257 0-170.667 76.41-170.667 170.667v0 512c0 94.257 76.41 170.667 170.667 170.667v0zM469.333 380.331v238.336c0 23.564 19.103 42.667 42.667 42.667s42.667-19.103 42.667-42.667v0-238.336l108.203 108.203c7.665 7.41 18.12 11.977 29.641 11.977 23.564 0 42.667-19.103 42.667-42.667 0-11.521-4.567-21.976-11.989-29.653l-181.023-181.023c-7.706-7.749-18.376-12.545-30.165-12.545s-22.459 4.796-30.163 12.544l-181.037 181.037c-8.036 7.769-13.026 18.647-13.026 30.69 0 23.564 19.103 42.667 42.667 42.667 12.043 0 22.92-4.989 30.678-13.014l108.215-108.215z" />
<glyph unicode="&#xe932;" glyph-name="arrow-square-down-f" data-tags="arrow-square-down-f" d="M481.835 247.168c7.706-7.749 18.376-12.545 30.165-12.545s22.459 4.796 30.163 12.544l181.037 181.037c8.036 7.769 13.026 18.647 13.026 30.69 0 23.564-19.103 42.667-42.667 42.667-12.043 0-22.92-4.989-30.678-13.014l-108.215-108.215v238.336c0 23.564-19.103 42.667-42.667 42.667s-42.667-19.103-42.667-42.667v0-238.336l-108.203 108.203c-7.769 8.036-18.647 13.026-30.69 13.026-23.564 0-42.667-19.103-42.667-42.667 0-12.043 4.989-22.92 13.014-30.678l181.047-181.047zM256 874.667h512c94.257 0 170.667-76.41 170.667-170.667v0-512c0-94.257-76.41-170.667-170.667-170.667v0h-512c-94.257 0-170.667 76.41-170.667 170.667v0 512c0 94.257 76.41 170.667 170.667 170.667v0z" />
<glyph unicode="&#xe933;" glyph-name="arrow-square-down-left" data-tags="arrow-square-down-left" d="M256 789.333c-47.128 0-85.333-38.205-85.333-85.333v0-512c0-47.128 38.205-85.333 85.333-85.333v0h512c47.128 0 85.333 38.205 85.333 85.333v0 512c0 47.128-38.205 85.333-85.333 85.333v0h-512zM256 874.667h512c94.257 0 170.667-76.41 170.667-170.667v0-512c0-94.257-76.41-170.667-170.667-170.667v0h-512c-94.257 0-170.667 76.41-170.667 170.667v0 512c0 94.257 76.41 170.667 170.667 170.667v0zM434.005 430.336l168.533 168.533c7.722 7.716 18.386 12.489 30.165 12.489 23.569 0 42.675-19.106 42.675-42.675 0-11.79-4.781-22.463-12.51-30.186l-168.534-168.534h153.003c23.564 0 42.667-19.103 42.667-42.667s-19.103-42.667-42.667-42.667v0h-256c-0.038 0-0.083 0-0.128 0-23.493 0-42.539 19.045-42.539 42.539 0 0.045 0 0.090 0 0.135v-0.007 256c0 23.564 19.103 42.667 42.667 42.667s42.667-19.103 42.667-42.667v0-152.96z" />
<glyph unicode="&#xe934;" glyph-name="arrow-square-down-left-f" data-tags="arrow-square-down-left-f" d="M348.672 327.339c0-0.038 0-0.083 0-0.128 0-23.493 19.045-42.539 42.539-42.539 0.045 0 0.090 0 0.135 0h255.993c23.564 0 42.667 19.103 42.667 42.667s-19.103 42.667-42.667 42.667v0h-153.003l168.533 168.533c7.716 7.722 12.489 18.386 12.489 30.165 0 23.569-19.106 42.675-42.675 42.675-11.79 0-22.463-4.781-30.186-12.51l-168.534-168.534v153.003c0 23.564-19.103 42.667-42.667 42.667s-42.667-19.103-42.667-42.667v0-256zM256 874.667h512c94.257 0 170.667-76.41 170.667-170.667v0-512c0-94.257-76.41-170.667-170.667-170.667v0h-512c-94.257 0-170.667 76.41-170.667 170.667v0 512c0 94.257 76.41 170.667 170.667 170.667v0z" />
<glyph unicode="&#xe935;" glyph-name="arrow-square-down-right" data-tags="arrow-square-down-right" d="M256 789.333c-47.128 0-85.333-38.205-85.333-85.333v0-512c0-47.128 38.205-85.333 85.333-85.333v0h512c47.128 0 85.333 38.205 85.333 85.333v0 512c0 47.128-38.205 85.333-85.333 85.333v0h-512zM256 874.667h512c94.257 0 170.667-76.41 170.667-170.667v0-512c0-94.257-76.41-170.667-170.667-170.667v0h-512c-94.257 0-170.667 76.41-170.667 170.667v0 512c0 94.257 76.41 170.667 170.667 170.667v0zM529.664 370.005l-168.533 168.533c-7.704 7.72-12.467 18.375-12.467 30.144 0 23.569 19.106 42.675 42.675 42.675 11.8 0 22.482-4.79 30.207-12.531l168.534-168.534v153.045c0 23.564 19.103 42.667 42.667 42.667s42.667-19.103 42.667-42.667v0-256c0-0.038 0-0.083 0-0.128 0-23.493-19.045-42.539-42.539-42.539-0.045 0-0.090 0-0.135 0h-255.993c-23.564 0-42.667 19.103-42.667 42.667s19.103 42.667 42.667 42.667v0h152.96z" />
<glyph unicode="&#xe936;" glyph-name="arrow-square-down-right-f" data-tags="arrow-square-down-right-f" d="M632.661 284.672c0.038 0 0.083 0 0.128 0 23.493 0 42.539 19.045 42.539 42.539 0 0.045 0 0.090 0 0.135v-0.007 256c0 23.564-19.103 42.667-42.667 42.667s-42.667-19.103-42.667-42.667v0-153.003l-168.533 168.533c-7.72 7.704-18.375 12.467-30.144 12.467-23.569 0-42.675-19.106-42.675-42.675 0-11.8 4.79-22.482 12.531-30.207l168.534-168.534h-153.045c-23.564 0-42.667-19.103-42.667-42.667s19.103-42.667 42.667-42.667v0h256zM256 874.667h512c94.257 0 170.667-76.41 170.667-170.667v0-512c0-94.257-76.41-170.667-170.667-170.667v0h-512c-94.257 0-170.667 76.41-170.667 170.667v0 512c0 94.257 76.41 170.667 170.667 170.667v0z" />
<glyph unicode="&#xe937;" glyph-name="arrow-square-left" data-tags="arrow-square-left" d="M256 789.333c-47.128 0-85.333-38.205-85.333-85.333v0-512c0-47.128 38.205-85.333 85.333-85.333v0h512c47.128 0 85.333 38.205 85.333 85.333v0 512c0 47.128-38.205 85.333-85.333 85.333v0h-512zM256 874.667h512c94.257 0 170.667-76.41 170.667-170.667v0-512c0-94.257-76.41-170.667-170.667-170.667v0h-512c-94.257 0-170.667 76.41-170.667 170.667v0 512c0 94.257 76.41 170.667 170.667 170.667v0zM444.331 490.667h238.336c23.564 0 42.667-19.103 42.667-42.667s-19.103-42.667-42.667-42.667v0h-238.336l108.203-108.203c7.41-7.665 11.977-18.12 11.977-29.641 0-23.564-19.103-42.667-42.667-42.667-11.521 0-21.976 4.567-29.653 11.989l-181.023 181.023c-7.749 7.706-12.545 18.376-12.545 30.165s4.796 22.459 12.544 30.163l181.037 181.037c7.769 8.036 18.647 13.026 30.69 13.026 23.564 0 42.667-19.103 42.667-42.667 0-12.043-4.989-22.92-13.014-30.678l-108.215-108.215z" />
<glyph unicode="&#xe938;" glyph-name="arrow-square-left-f" data-tags="arrow-square-left-f" d="M311.168 478.165c-7.749-7.706-12.545-18.376-12.545-30.165s4.796-22.459 12.544-30.163l181.037-181.037c7.769-8.036 18.647-13.026 30.69-13.026 23.564 0 42.667 19.103 42.667 42.667 0 12.043-4.989 22.92-13.014 30.678l-108.215 108.215h238.336c23.564 0 42.667 19.103 42.667 42.667s-19.103 42.667-42.667 42.667v0h-238.336l108.203 108.203c8.036 7.769 13.026 18.647 13.026 30.69 0 23.564-19.103 42.667-42.667 42.667-12.043 0-22.92-4.989-30.678-13.014l-181.047-181.047zM256 874.667h512c94.257 0 170.667-76.41 170.667-170.667v0-512c0-94.257-76.41-170.667-170.667-170.667v0h-512c-94.257 0-170.667 76.41-170.667 170.667v0 512c0 94.257 76.41 170.667 170.667 170.667v0z" />
<glyph unicode="&#xe939;" glyph-name="arrow-square-right" data-tags="arrow-square-right" d="M256 789.333c-47.128 0-85.333-38.205-85.333-85.333v0-512c0-47.128 38.205-85.333 85.333-85.333v0h512c47.128 0 85.333 38.205 85.333 85.333v0 512c0 47.128-38.205 85.333-85.333 85.333v0h-512zM256 874.667h512c94.257 0 170.667-76.41 170.667-170.667v0-512c0-94.257-76.41-170.667-170.667-170.667v0h-512c-94.257 0-170.667 76.41-170.667 170.667v0 512c0 94.257 76.41 170.667 170.667 170.667v0zM579.669 405.333h-238.336c-23.564 0-42.667 19.103-42.667 42.667s19.103 42.667 42.667 42.667v0h238.336l-108.203 108.203c-7.41 7.665-11.977 18.12-11.977 29.641 0 23.564 19.103 42.667 42.667 42.667 11.521 0 21.976-4.567 29.653-11.989l181.023-181.023c7.749-7.706 12.545-18.376 12.545-30.165s-4.796-22.459-12.544-30.163l-181.037-181.037c-7.769-8.036-18.647-13.026-30.69-13.026-23.564 0-42.667 19.103-42.667 42.667 0 12.043 4.989 22.92 13.014 30.678l108.215 108.215z" />
<glyph unicode="&#xe93a;" glyph-name="arrow-square-right-f" data-tags="arrow-square-right-f" d="M712.832 417.835c7.749 7.706 12.545 18.376 12.545 30.165s-4.796 22.459-12.544 30.163l-181.037 181.037c-7.665 7.41-18.12 11.977-29.641 11.977-23.564 0-42.667-19.103-42.667-42.667 0-11.521 4.567-21.976 11.989-29.653l108.191-108.191h-238.336c-23.564 0-42.667-19.103-42.667-42.667s19.103-42.667 42.667-42.667v0h238.336l-108.203-108.203c-7.41-7.665-11.977-18.12-11.977-29.641 0-23.564 19.103-42.667 42.667-42.667 11.521 0 21.976 4.567 29.653 11.989l181.023 181.023zM256 874.667h512c94.257 0 170.667-76.41 170.667-170.667v0-512c0-94.257-76.41-170.667-170.667-170.667v0h-512c-94.257 0-170.667 76.41-170.667 170.667v0 512c0 94.257 76.41 170.667 170.667 170.667v0z" />
<glyph unicode="&#xe93b;" glyph-name="arrow-square-up" data-tags="arrow-square-up" d="M256 789.333c-47.128 0-85.333-38.205-85.333-85.333v0-512c0-47.128 38.205-85.333 85.333-85.333v0h512c47.128 0 85.333 38.205 85.333 85.333v0 512c0 47.128-38.205 85.333-85.333 85.333v0h-512zM256 874.667h512c94.257 0 170.667-76.41 170.667-170.667v0-512c0-94.257-76.41-170.667-170.667-170.667v0h-512c-94.257 0-170.667 76.41-170.667 170.667v0 512c0 94.257 76.41 170.667 170.667 170.667v0zM554.667 515.669v-238.336c0-23.564-19.103-42.667-42.667-42.667s-42.667 19.103-42.667 42.667v0 238.336l-108.203-108.203c-7.769-8.036-18.647-13.026-30.69-13.026-23.564 0-42.667 19.103-42.667 42.667 0 12.043 4.989 22.92 13.014 30.678l181.047 181.047c7.706 7.749 18.376 12.545 30.165 12.545s22.459-4.796 30.163-12.544l181.037-181.037c8.036-7.769 13.026-18.647 13.026-30.69 0-23.564-19.103-42.667-42.667-42.667-12.043 0-22.92 4.989-30.678 13.014l-108.215 108.215z" />
<glyph unicode="&#xe93c;" glyph-name="arrow-square-up-f" data-tags="arrow-square-up-f" d="M542.165 648.832c-7.706 7.749-18.376 12.545-30.165 12.545s-22.459-4.796-30.163-12.544l-181.037-181.037c-7.41-7.665-11.977-18.12-11.977-29.641 0-23.564 19.103-42.667 42.667-42.667 11.521 0 21.976 4.567 29.653 11.989l108.191 108.191v-238.336c0-23.564 19.103-42.667 42.667-42.667s42.667 19.103 42.667 42.667v0 238.336l108.203-108.203c7.665-7.41 18.12-11.977 29.641-11.977 23.564 0 42.667 19.103 42.667 42.667 0 11.521-4.567 21.976-11.989 29.653l-181.023 181.023zM256 874.667h512c94.257 0 170.667-76.41 170.667-170.667v0-512c0-94.257-76.41-170.667-170.667-170.667v0h-512c-94.257 0-170.667 76.41-170.667 170.667v0 512c0 94.257 76.41 170.667 170.667 170.667v0z" />
<glyph unicode="&#xe93d;" glyph-name="arrow-square-up-left" data-tags="arrow-square-up-left" d="M256 789.333c-47.128 0-85.333-38.205-85.333-85.333v0-512c0-47.128 38.205-85.333 85.333-85.333v0h512c47.128 0 85.333 38.205 85.333 85.333v0 512c0 47.128-38.205 85.333-85.333 85.333v0h-512zM256 874.667h512c94.257 0 170.667-76.41 170.667-170.667v0-512c0-94.257-76.41-170.667-170.667-170.667v0h-512c-94.257 0-170.667 76.41-170.667 170.667v0 512c0 94.257 76.41 170.667 170.667 170.667v0zM494.336 525.995l168.533-168.533c7.716-7.722 12.489-18.386 12.489-30.165 0-23.569-19.106-42.675-42.675-42.675-11.79 0-22.463 4.781-30.186 12.51l-168.534 168.534v-153.003c0-23.564-19.103-42.667-42.667-42.667s-42.667 19.103-42.667 42.667v0 256c0 0.038 0 0.083 0 0.128 0 23.493 19.045 42.539 42.539 42.539 0.045 0 0.090 0 0.135 0h255.993c23.564 0 42.667-19.103 42.667-42.667s-19.103-42.667-42.667-42.667v0h-152.917z" />
<glyph unicode="&#xe93e;" glyph-name="arrow-square-up-left-f" data-tags="arrow-square-up-left-f" d="M391.339 611.328c-0.038 0-0.083 0-0.128 0-23.493 0-42.539-19.045-42.539-42.539 0-0.045 0-0.090 0-0.135v0.007-256c0-23.564 19.103-42.667 42.667-42.667s42.667 19.103 42.667 42.667v0 153.003l168.533-168.533c7.722-7.716 18.386-12.489 30.165-12.489 23.569 0 42.675 19.106 42.675 42.675 0 11.79-4.781 22.463-12.51 30.186l-168.534 168.534h153.003c23.564 0 42.667 19.103 42.667 42.667s-19.103 42.667-42.667 42.667v0h-256zM256 874.667h512c94.257 0 170.667-76.41 170.667-170.667v0-512c0-94.257-76.41-170.667-170.667-170.667v0h-512c-94.257 0-170.667 76.41-170.667 170.667v0 512c0 94.257 76.41 170.667 170.667 170.667v0z" />
<glyph unicode="&#xe93f;" glyph-name="arrow-square-up-right" data-tags="arrow-square-up-right" d="M256 789.333c-47.128 0-85.333-38.205-85.333-85.333v0-512c0-47.128 38.205-85.333 85.333-85.333v0h512c47.128 0 85.333 38.205 85.333 85.333v0 512c0 47.128-38.205 85.333-85.333 85.333v0h-512zM256 874.667h512c94.257 0 170.667-76.41 170.667-170.667v0-512c0-94.257-76.41-170.667-170.667-170.667v0h-512c-94.257 0-170.667 76.41-170.667 170.667v0 512c0 94.257 76.41 170.667 170.667 170.667v0zM589.995 465.664l-168.533-168.533c-7.722-7.716-18.386-12.489-30.165-12.489-23.569 0-42.675 19.106-42.675 42.675 0 11.79 4.781 22.463 12.51 30.186l168.534 168.534h-153.003c-23.564 0-42.667 19.103-42.667 42.667s19.103 42.667 42.667 42.667v0h256c0.038 0 0.083 0 0.128 0 23.493 0 42.539-19.045 42.539-42.539 0-0.045 0-0.090 0-0.135v0.007-256c0-23.564-19.103-42.667-42.667-42.667s-42.667 19.103-42.667 42.667v0 152.917z" />
<glyph unicode="&#xe940;" glyph-name="arrow-square-up-right-f" data-tags="arrow-square-up-right-f" d="M675.328 568.661c0 0.038 0 0.083 0 0.128 0 23.493-19.045 42.539-42.539 42.539-0.045 0-0.090 0-0.135 0h-255.993c-23.564 0-42.667-19.103-42.667-42.667s19.103-42.667 42.667-42.667v0h153.003l-168.533-168.533c-7.716-7.722-12.489-18.386-12.489-30.165 0-23.569 19.106-42.675 42.675-42.675 11.79 0 22.463 4.781 30.186 12.51l168.534 168.534v-153.003c0-23.564 19.103-42.667 42.667-42.667s42.667 19.103 42.667 42.667v0 256zM256 874.667h512c94.257 0 170.667-76.41 170.667-170.667v0-512c0-94.257-76.41-170.667-170.667-170.667v0h-512c-94.257 0-170.667 76.41-170.667 170.667v0 512c0 94.257 76.41 170.667 170.667 170.667v0z" />
<glyph unicode="&#xe941;" glyph-name="arrows-v" data-tags="arrows-v" d="M469.333 167.552v561.237l-108.203-108.16c-7.665-7.41-18.12-11.977-29.641-11.977-23.564 0-42.667 19.103-42.667 42.667 0 11.521 4.567 21.976 11.989 29.653l181.023 181.023c7.721 7.718 18.386 12.492 30.165 12.492s22.445-4.774 30.165-12.492l181.035-181.035c8.036-7.769 13.026-18.647 13.026-30.69 0-23.564-19.103-42.667-42.667-42.667-12.043 0-22.92 4.989-30.678 13.014l-108.215 108.129v-561.237l108.203 108.203c7.769 8.036 18.647 13.026 30.69 13.026 23.564 0 42.667-19.103 42.667-42.667 0-12.043-4.989-22.92-13.014-30.678l-181.047-181.047c-7.706-7.749-18.376-12.545-30.165-12.545s-22.459 4.796-30.163 12.544l-181.037 181.079c-8.036 7.769-13.026 18.647-13.026 30.69 0 23.564 19.103 42.667 42.667 42.667 12.043 0 22.92-4.989 30.678-13.014l108.215-108.215z" />
<glyph unicode="&#xe942;" glyph-name="arrow-up" data-tags="arrow-up" d="M469.333 594.304l-168.533-168.533c-7.665-7.41-18.12-11.977-29.641-11.977-23.564 0-42.667 19.103-42.667 42.667 0 11.521 4.567 21.976 11.989 29.653l241.353 241.353c7.706 7.749 18.376 12.545 30.165 12.545s22.459-4.796 30.163-12.544l241.367-241.367c7.15-7.611 11.543-17.885 11.543-29.185 0-23.564-19.103-42.667-42.667-42.667-11.311 0-21.594 4.401-29.229 11.585l0.022-0.020-168.533 168.533v-409.003c0-23.564-19.103-42.667-42.667-42.667s-42.667 19.103-42.667 42.667v0 409.003z" />
<glyph unicode="&#xe943;" glyph-name="arrow-up-left" data-tags="arrow-up-left" d="M373.632 519.339v-238.336c0-23.564-19.103-42.667-42.667-42.667s-42.667 19.103-42.667 42.667v0 341.333c0 0.038 0 0.083 0 0.128 0 23.493 19.045 42.539 42.539 42.539 0.045 0 0.090 0 0.135 0h341.326c23.564 0 42.667-19.103 42.667-42.667s-19.103-42.667-42.667-42.667v0h-238.293l289.195-289.195c7.729-7.724 12.51-18.397 12.51-30.187 0-23.569-19.106-42.675-42.675-42.675-11.779 0-22.444 4.772-30.166 12.489l-289.237 289.237z" />
<glyph unicode="&#xe944;" glyph-name="arrow-up-right" data-tags="arrow-up-right" d="M589.995 579.669h-238.293c-23.564 0-42.667 19.103-42.667 42.667s19.103 42.667 42.667 42.667v0h341.333c0.038 0 0.083 0 0.128 0 23.493 0 42.539-19.045 42.539-42.539 0-0.045 0-0.090 0-0.135v0.007-341.333c0-23.564-19.103-42.667-42.667-42.667s-42.667 19.103-42.667 42.667v0 238.336l-289.237-289.237c-7.722-7.716-18.386-12.489-30.165-12.489-23.569 0-42.675 19.106-42.675 42.675 0 11.79 4.781 22.463 12.51 30.186l289.195 289.195z" />
<glyph unicode="&#xe945;" glyph-name="attachment" data-tags="attachment" d="M850.475 667.349c7.274 7.695 17.553 12.484 28.949 12.484s21.675-4.789 28.932-12.465l0.018-0.019c16-16.64 16-43.605 0-60.245l-491.947-512.384c-36.358-38.468-87.735-62.413-144.704-62.413s-108.346 23.944-144.615 62.318l-0.089 0.094c-79.915 83.2-79.915 218.155 0 301.397l434.048 452.096c21.816 23.081 52.644 37.448 86.827 37.448s65.010-14.367 86.774-37.392l0.053-0.057c47.957-49.92 47.957-130.901 0-180.864l-376.235-391.723c-7.273-7.681-17.542-12.461-28.928-12.461s-21.655 4.78-28.911 12.443l-0.017 0.018c-7.418 7.839-11.98 18.448-11.98 30.123s4.561 22.284 11.999 30.143l-0.019-0.020 376.235 391.808c7.431 7.841 12 18.459 12 30.144s-4.569 22.303-12.018 30.164l0.019-0.020c-7.274 7.695-17.553 12.484-28.949 12.484s-21.675-4.789-28.932-12.465l-0.018-0.019-434.133-452.181c-47.915-49.92-47.915-130.901 0-180.821 21.816-23.081 52.644-37.448 86.827-37.448s65.010 14.367 86.774 37.392l0.053 0.057 491.989 512.384z" />
<glyph unicode="&#xe946;" glyph-name="background-color" data-tags="background-color" d="M577.835 362.667l21.589-59.136c7.253-19.883 31.317-30.805 53.76-24.32 22.4 6.4 34.688 27.776 27.435 47.659l-87.467 239.36c-8.405 23.125-28.8 41.259-54.827 48.725-44.8 12.885-92.971-8.917-107.52-48.683l-87.339-239.36c-7.253-19.925 5.035-41.259 27.435-47.744 22.4-6.4 46.507 4.48 53.76 24.363l21.547 59.136h131.627zM546.688 448h-69.333l34.645 94.891 34.688-94.891zM341.333 704h341.333c47.128 0 85.333-38.205 85.333-85.333v0-341.333c0-47.128-38.205-85.333-85.333-85.333v0h-341.333c-47.128 0-85.333 38.205-85.333 85.333v0 341.333c0 47.128 38.205 85.333 85.333 85.333v0z" />
<glyph unicode="&#xe947;" glyph-name="backpack" data-tags="backpack" d="M341.333 320v-213.333h341.333v213.333h-341.333zM768 352.597v-245.931c0-47.128-38.205-85.333-85.333-85.333v0h-341.333c-47.128 0-85.333 38.205-85.333 85.333v0 245.931c-26.197 23.467-42.667 57.515-42.667 95.403v128c0 70.692 57.308 128 128 128v0h341.333c70.692 0 128-57.308 128-128v0-128c0-37.888-16.469-71.979-42.667-95.403zM341.333 618.667c-23.564 0-42.667-19.103-42.667-42.667v0-128c0-23.564 19.103-42.667 42.667-42.667v0h341.333c23.564 0 42.667 19.103 42.667 42.667v0 128c0 23.564-19.103 42.667-42.667 42.667v0h-341.333zM554.667 405.333h-85.333v42.667c0 23.564 19.103 42.667 42.667 42.667s42.667-19.103 42.667-42.667v0-42.667zM554.667 320v-42.667c0-23.564-19.103-42.667-42.667-42.667s-42.667 19.103-42.667 42.667v0 42.667h85.333zM362.667 874.667c35.346 0 64-28.654 64-64v0-128c0-35.346-28.654-64-64-64s-64 28.654-64 64v0 128c0 35.346 28.654 64 64 64v0zM661.333 874.667c35.346 0 64-28.654 64-64v0-128c0-35.346-28.654-64-64-64s-64 28.654-64 64v0 128c0 35.346 28.654 64 64 64v0z" />
<glyph unicode="&#xe948;" glyph-name="backpack-f" data-tags="backpack-f" d="M469.333 277.333c0-23.564 19.103-42.667 42.667-42.667s42.667 19.103 42.667 42.667v0h128c31.104 0 60.245 8.32 85.333 22.827v-193.493c0-47.128-38.205-85.333-85.333-85.333v0h-341.333c-47.128 0-85.333 38.205-85.333 85.333v0 193.493c25.088-14.507 54.229-22.827 85.333-22.827h128zM554.667 320v128c0 23.564-19.103 42.667-42.667 42.667s-42.667-19.103-42.667-42.667v0-128h-128c-70.692 0-128 57.308-128 128v0 128c0 70.692 57.308 128 128 128v0h341.333c70.692 0 128-57.308 128-128v0-128c0-70.692-57.308-128-128-128v0h-128zM426.667 746.667h-85.333c-14.72 0-29.013-1.877-42.667-5.376v69.376c0 35.346 28.654 64 64 64s64-28.654 64-64v0-64zM725.333 741.291c-12.766 3.415-27.422 5.376-42.536 5.376-0.046 0-0.092 0-0.138 0h-85.326v64c0 35.346 28.654 64 64 64s64-28.654 64-64v0-69.376z" />
<glyph unicode="&#xe949;" glyph-name="backward" data-tags="backward" d="M789.76 802.56c15.479 18.059 38.314 29.429 63.805 29.429 21.681 0 41.441-8.226 56.329-21.726l-0.070 0.063c18.347-16.469 28.843-40.192 28.843-65.109v-594.432c0-47.915-38.101-86.784-85.077-86.784-25.488 0.063-48.311 11.42-63.737 29.33l-0.093 0.11-256.512 297.216c-13.186 15.311-21.215 35.39-21.215 57.344s8.030 42.033 21.312 57.459l-0.097-0.115 256.512 297.216zM853.589 150.784v594.432l-256.512-297.216 256.512-297.216zM363.093 802.56c15.479 18.059 38.314 29.429 63.805 29.429 21.681 0 41.441-8.226 56.329-21.726l-0.070 0.063c18.347-16.469 28.843-40.192 28.843-65.109v-594.432c0-47.915-38.101-86.784-85.077-86.784-25.488 0.063-48.311 11.42-63.737 29.33l-0.093 0.11-256.512 297.216c-13.186 15.311-21.215 35.39-21.215 57.344s8.030 42.033 21.312 57.459l-0.097-0.115 256.512 297.216zM426.923 150.784v594.432l-256.512-297.216 256.512-297.216z" />
<glyph unicode="&#xe94a;" glyph-name="backward-circle" data-tags="backward-circle" d="M512 21.333c-235.648 0-426.667 191.019-426.667 426.667s191.019 426.667 426.667 426.667 426.667-191.019 426.667-426.667-191.019-426.667-426.667-426.667zM512 106.667c188.513 0 341.333 152.82 341.333 341.333s-152.82 341.333-341.333 341.333v0c-188.513 0-341.333-152.82-341.333-341.333s152.82-341.333 341.333-341.333v0zM553.515 586.496l83.456 59.648c38.613 27.563 90.88 16.597 116.779-24.576 9.301-14.763 14.251-32.128 14.251-49.92v-247.296c0-49.493-37.675-89.685-84.139-89.685-16.683 0-33.024 5.291-46.891 15.189l-83.456 59.648c-6.613-42.411-41.259-74.837-82.987-74.837-16.683 0-33.024 5.291-46.891 15.189l-173.013 123.648c-38.613 27.605-48.896 83.285-23.040 124.459 6.101 9.685 13.952 18.005 23.040 24.533l173.056 123.648c38.613 27.563 90.88 16.597 116.779-24.576 6.699-10.624 11.093-22.613 13.099-35.072zM470.528 324.352v247.296l-173.013-123.648 173.013-123.648zM683.861 324.352v247.296l-128.853-92.117-0.171-62.976 129.024-92.203z" />
<glyph unicode="&#xe94b;" glyph-name="backward-circle-f" data-tags="backward-circle-f" d="M553.515 586.496c-2.112 13.211-6.712 25.033-13.324 35.452l0.225-0.38c-25.899 41.173-78.165 52.139-116.779 24.576l-173.013-123.648c-9.213-6.663-16.89-14.815-22.829-24.178l-0.211-0.356c-25.856-41.173-15.573-96.853 23.040-124.459l173.013-123.648c13.867-9.899 30.208-15.189 46.891-15.189 41.728 0 76.373 32.384 82.987 74.837l83.456-59.648c13.867-9.899 30.208-15.189 46.891-15.189 46.464 0 84.139 40.149 84.139 89.685v247.296c0 17.792-4.949 35.157-14.251 49.92-25.899 41.173-78.165 52.139-116.779 24.576l-83.456-59.648zM512 21.333c-235.648 0-426.667 191.019-426.667 426.667s191.019 426.667 426.667 426.667 426.667-191.019 426.667-426.667-191.019-426.667-426.667-426.667zM683.861 324.352l-129.024 92.203 0.128 62.976 128.853 92.117v-247.296zM470.528 324.352l-173.013 123.648 173.013 123.648v-247.296z" />
<glyph unicode="&#xe94c;" glyph-name="backward-square" data-tags="backward-square" d="M256 874.667h512c94.257 0 170.667-76.41 170.667-170.667v0-512c0-94.257-76.41-170.667-170.667-170.667v0h-512c-94.257 0-170.667 76.41-170.667 170.667v0 512c0 94.257 76.41 170.667 170.667 170.667v0zM256 789.333c-47.128 0-85.333-38.205-85.333-85.333v0-512c0-47.128 38.205-85.333 85.333-85.333v0h512c47.128 0 85.333 38.205 85.333 85.333v0 512c0 47.128-38.205 85.333-85.333 85.333v0h-512zM553.515 586.496l83.456 59.648c38.613 27.563 90.88 16.597 116.779-24.576 9.301-14.763 14.251-32.128 14.251-49.92v-247.296c0-49.493-37.675-89.685-84.139-89.685-16.683 0-33.024 5.291-46.891 15.189l-83.456 59.648c-6.613-42.411-41.259-74.837-82.987-74.837-16.683 0-33.024 5.291-46.891 15.189l-173.013 123.648c-38.613 27.605-48.896 83.285-23.040 124.459 6.101 9.685 13.952 18.005 23.040 24.533l173.056 123.648c38.613 27.563 90.88 16.597 116.779-24.576 6.699-10.624 11.093-22.613 13.099-35.072zM470.528 324.352v247.296l-173.013-123.648 173.013-123.648zM683.861 324.352v247.296l-128.853-92.117-0.171-62.976 129.024-92.203z" />
<glyph unicode="&#xe94d;" glyph-name="backward-square-f" data-tags="backward-square-f" d="M553.515 586.496c-2.112 13.211-6.712 25.033-13.324 35.452l0.225-0.38c-25.899 41.173-78.165 52.139-116.779 24.576l-173.013-123.648c-9.213-6.663-16.89-14.815-22.829-24.178l-0.211-0.356c-25.856-41.173-15.573-96.853 23.040-124.459l173.013-123.648c13.867-9.899 30.208-15.189 46.891-15.189 41.728 0 76.373 32.384 82.987 74.837l83.456-59.648c13.867-9.899 30.208-15.189 46.891-15.189 46.464 0 84.139 40.149 84.139 89.685v247.296c0 17.792-4.949 35.157-14.251 49.92-25.899 41.173-78.165 52.139-116.779 24.576l-83.456-59.648zM256 874.667h512c94.257 0 170.667-76.41 170.667-170.667v0-512c0-94.257-76.41-170.667-170.667-170.667v0h-512c-94.257 0-170.667 76.41-170.667 170.667v0 512c0 94.257 76.41 170.667 170.667 170.667v0zM684.885 571.136v-247.253l-128.853 92.075-0.171 62.976 129.024 92.203zM472.832 571.136v-247.253l-172.971 123.605 173.013 123.648z" />
<glyph unicode="&#xe951;" glyph-name="bandage" data-tags="bandage" d="M861.739 834.347c36.221-36.227 58.624-86.27 58.624-141.547s-22.403-105.32-58.624-141.547l-452.992-452.992c-36.047-35.206-85.4-56.925-139.826-56.925-110.563 0-200.192 89.629-200.192 200.192 0 54.426 21.719 103.779 56.963 139.865l-0.038-0.039 452.992 452.992c36.227 36.221 86.27 58.624 141.547 58.624s105.32-22.403 141.547-58.624v0zM805.12 777.728c-21.735 21.735-51.762 35.178-84.928 35.178s-63.193-13.443-84.928-35.178l-452.992-453.035c-22.546-21.86-36.539-52.43-36.539-86.268 0-66.333 53.774-120.107 120.107-120.107 33.849 0 64.427 14.002 86.258 36.53l0.030 0.031 452.992 452.949c21.743 21.723 35.192 51.744 35.192 84.907s-13.449 63.183-35.191 84.906l-0.001 0.001zM550.315 579.541l56.619-56.619c7.248-7.243 11.732-17.253 11.732-28.309s-4.484-21.066-11.732-28.309l-113.238-113.238c-7.243-7.248-17.253-11.732-28.309-11.732s-21.066 4.484-28.309 11.732l-56.619 56.619c-7.248 7.243-11.732 17.253-11.732 28.309s4.484 21.066 11.732 28.309l113.238 113.238c7.243 7.248 17.253 11.732 28.309 11.732s21.066-4.484 28.309-11.732v0zM578.645 607.872c-7.245 7.245-11.726 17.254-11.726 28.309 0 22.111 17.924 40.035 40.035 40.035 11.055 0 21.064-4.481 28.309-11.726v0c7.245-7.245 11.726-17.254 11.726-28.309 0-22.111-17.924-40.035-40.035-40.035-11.055 0-21.064 4.481-28.309 11.726v0zM295.509 324.693c-7.245 7.245-11.726 17.254-11.726 28.309 0 22.111 17.924 40.035 40.035 40.035 11.055 0 21.064-4.481 28.309-11.726v0c7.245-7.245 11.726-17.254 11.726-28.309 0-22.111-17.924-40.035-40.035-40.035-11.055 0-21.064 4.481-28.309 11.726v0zM720.171 636.16c-7.354 7.26-11.909 17.341-11.909 28.485 0 22.103 17.918 40.021 40.021 40.021 11.155 0 21.244-4.564 28.502-11.926l0.005-0.005c7.245-7.245 11.726-17.254 11.726-28.309 0-22.111-17.924-40.035-40.035-40.035-11.055 0-21.064 4.481-28.309 11.726v0zM267.221 183.168c-7.245 7.245-11.726 17.254-11.726 28.309 0 22.111 17.924 40.035 40.035 40.035 11.055 0 21.064-4.481 28.309-11.726v0c7.245-7.245 11.726-17.254 11.726-28.309 0-22.111-17.924-40.035-40.035-40.035-11.055 0-21.064 4.481-28.309 11.726v0z" />
<glyph unicode="&#xe952;" glyph-name="bandage-f" data-tags="bandage-f" d="M892.587 851.797c38.592-38.604 62.461-91.928 62.461-150.827s-23.869-112.223-62.462-150.827l-482.687-482.73c-38.787-39.759-92.893-64.418-152.759-64.418-117.821 0-213.333 95.513-213.333 213.333 0 59.856 24.651 113.954 64.354 152.697l0.043 0.042 482.688 482.773c38.605 38.605 91.938 62.482 150.848 62.482s112.242-23.878 150.848-62.482v0zM560.725 580.309c-7.721 7.718-18.386 12.492-30.165 12.492s-22.445-4.774-30.165-12.492l-120.704-120.704c-7.718-7.721-12.492-18.386-12.492-30.165s4.774-22.445 12.492-30.165v0l60.373-60.331c7.721-7.718 18.386-12.492 30.165-12.492s22.445 4.774 30.165 12.492l120.661 120.661c7.718 7.721 12.492 18.386 12.492 30.165s-4.774 22.445-12.492 30.165l-60.331 60.373zM590.891 610.475c7.769-8.036 18.647-13.026 30.69-13.026 23.564 0 42.667 19.103 42.667 42.667 0 12.043-4.989 22.92-13.014 30.678l-0.012 0.012c-7.665 7.41-18.12 11.977-29.641 11.977-23.564 0-42.667-19.103-42.667-42.667 0-11.521 4.567-21.976 11.989-29.653l-0.012 0.012zM289.237 308.779c7.802-8.294 18.849-13.459 31.103-13.459 23.564 0 42.667 19.103 42.667 42.667 0 12.264-5.174 23.319-13.459 31.102l-0.023 0.021c-7.665 7.41-18.12 11.977-29.641 11.977-23.564 0-42.667-19.103-42.667-42.667 0-11.521 4.567-21.976 11.989-29.653l-0.012 0.012zM741.76 640.64c7.769-8.036 18.647-13.026 30.69-13.026 23.564 0 42.667 19.103 42.667 42.667 0 12.043-4.989 22.92-13.014 30.678l-0.012 0.012c-7.665 7.41-18.12 11.977-29.641 11.977-23.564 0-42.667-19.103-42.667-42.667 0-11.521 4.567-21.976 11.989-29.653l-0.012 0.012zM258.987 157.867c7.769-8.036 18.647-13.026 30.69-13.026 23.564 0 42.667 19.103 42.667 42.667 0 12.043-4.989 22.92-13.014 30.678l-0.012 0.012c-7.665 7.41-18.12 11.977-29.641 11.977-23.564 0-42.667-19.103-42.667-42.667 0-11.521 4.567-21.976 11.989-29.653l-0.012 0.012z" />
<glyph unicode="&#xe953;" glyph-name="bar-chart" data-tags="bar-chart" d="M256 789.333c23.564 0 42.667-19.103 42.667-42.667v0-597.333c0-23.564-19.103-42.667-42.667-42.667s-42.667 19.103-42.667 42.667v0 597.333c0 23.564 19.103 42.667 42.667 42.667v0zM768 618.667c23.564 0 42.667-19.103 42.667-42.667v0-426.667c0-23.564-19.103-42.667-42.667-42.667s-42.667 19.103-42.667 42.667v0 426.667c0 23.564 19.103 42.667 42.667 42.667v0zM512 448c23.564 0 42.667-19.103 42.667-42.667v0-256c0-23.564-19.103-42.667-42.667-42.667s-42.667 19.103-42.667 42.667v0 256c0 23.564 19.103 42.667 42.667 42.667v0z" />
<glyph unicode="&#xe954;" glyph-name="baseball" data-tags="baseball" d="M642.133 405.333h-2.133c-23.564 0-42.667 19.103-42.667 42.667s19.103 42.667 42.667 42.667v0h2.133c8.533 83.956 40.344 159.179 88.794 220.681l-0.687-0.905c-58.529 49.080-134.66 78.891-217.755 78.891-0.171 0-0.341 0-0.512 0h0.026c-0.144 0-0.315 0-0.485 0-83.094 0-159.226-29.811-218.283-79.322l0.528 0.431c47.762-60.596 79.573-135.819 87.958-217.975l0.149-1.801h2.133c23.564 0 42.667-19.103 42.667-42.667s-19.103-42.667-42.667-42.667v0h-2.133c-8.533-83.956-40.344-159.179-88.794-220.681l0.687 0.905c58.529-49.080 134.66-78.891 217.755-78.891 0.171 0 0.341 0 0.512 0h-0.026c0.144 0 0.315 0 0.485 0 83.094 0 159.226 29.811 218.283 79.322l-0.528-0.431c-47.762 60.596-79.573 135.819-87.958 217.975l-0.149 1.801zM727.979 490.581c22.375-1.46 39.97-19.966 39.97-42.581s-17.595-41.121-39.843-42.575l-0.127-0.007c7.554-59.406 29.428-112.593 62.032-157.481l-0.678 0.98c40.007 55.050 64 123.989 64 198.531 0 0.194 0 0.388 0 0.581v-0.030c0 72.96-22.955 142.037-64 199.083-31.927-43.909-53.801-97.096-61.179-154.814l-0.176-1.687zM296.021 405.419c-22.375 1.46-39.97 19.966-39.97 42.581s17.595 41.121 39.843 42.575l0.127 0.007c-7.554 59.406-29.428 112.593-62.032 157.481l0.678-0.98c-40.007-55.050-64-123.989-64-198.531 0-0.194 0-0.388 0-0.581v0.030c0-72.96 22.955-142.037 64-199.083 31.927 43.909 53.801 97.096 61.179 154.814l0.176 1.687zM512 21.333c-235.648 0-426.667 191.019-426.667 426.667s191.019 426.667 426.667 426.667 426.667-191.019 426.667-426.667-191.019-426.667-426.667-426.667z" />
<glyph unicode="&#xe955;" glyph-name="basketball" data-tags="basketball" d="M554.667 109.312c67.612 8.66 127.614 36.026 176.102 76.676l-0.528-0.431c-47.762 60.596-79.573 135.819-87.958 217.975l-0.149 1.801h-87.467v-296.021zM469.333 109.312v296.021h-87.467c-8.533-83.956-40.344-159.179-88.794-220.681l0.687 0.905c47.959-40.22 107.961-67.586 173.876-76.067l1.697-0.178zM381.867 490.667h87.467v296.021c-67.612-8.66-127.614-36.026-176.102-76.676l0.528 0.431c47.762-60.596 79.573-135.819 87.958-217.975l0.149-1.801zM554.667 786.688v-296.021h87.467c8.533 83.956 40.344 159.179 88.794 220.681l-0.687-0.905c-47.959 40.22-107.961 67.586-173.876 76.067l-1.697 0.178zM296.021 405.333h-122.709c7.568-59.375 29.441-112.531 62.032-157.395l-0.678 0.979c31.914 43.885 53.786 97.041 61.178 154.726l0.177 1.69zM173.312 490.667h122.709c-7.568 59.375-29.441 112.531-62.032 157.395l0.678-0.979c-31.914-43.885-53.786-97.041-61.178-154.726l-0.177-1.69zM727.979 490.667h122.709c-7.568 59.375-29.441 112.531-62.032 157.395l0.678-0.979c-31.914-43.885-53.786-97.041-61.178-154.726l-0.177-1.69zM850.688 405.333h-122.709c7.568-59.375 29.441-112.531 62.032-157.395l-0.678 0.979c31.914 43.885 53.786 97.041 61.178 154.726l0.177 1.69zM512 21.333c-235.648 0-426.667 191.019-426.667 426.667s191.019 426.667 426.667 426.667 426.667-191.019 426.667-426.667-191.019-426.667-426.667-426.667z" />
<glyph unicode="&#xe956;" glyph-name="bathtub" data-tags="bathtub" d="M447.445 787.627c61.191-10.343 107.217-62.943 107.221-126.293v0-85.333h-256v85.333c0 44.331 22.528 83.413 56.747 106.368-15.007 13.408-34.92 21.603-56.747 21.603-47.118 0-85.317-38.188-85.333-85.303v-256.001h682.667c23.564 0 42.667-19.103 42.667-42.667s-19.103-42.667-42.667-42.667v0-42.667c0-0.009 0-0.020 0-0.031 0-110.812-70.383-205.186-168.884-240.855l-1.783-0.564v-14.549c0-23.564-19.103-42.667-42.667-42.667s-42.667 19.103-42.667 42.667v0h-256c0-23.564-19.103-42.667-42.667-42.667s-42.667 19.103-42.667 42.667v0 14.549c-100.284 36.233-170.667 130.607-170.667 241.419 0 0.011 0 0.022 0 0.033v-0.002 42.667c-23.564 0-42.667 19.103-42.667 42.667s19.103 42.667 42.667 42.667v0 256c0 0.003 0 0.005 0 0.008 0 94.257 76.41 170.667 170.667 170.667 63.532 0 118.956-34.714 148.338-86.21l0.441-0.839zM810.667 362.667h-597.333v-42.667c0-94.257 76.41-170.667 170.667-170.667v0h256c94.257 0 170.667 76.41 170.667 170.667v0 42.667zM426.667 704c-23.564 0-42.667-19.103-42.667-42.667v0h85.333c0 23.564-19.103 42.667-42.667 42.667v0z" />
<glyph unicode="&#xe957;" glyph-name="bathtub-f" data-tags="bathtub-f" d="M447.445 772.395c61.191-10.343 107.217-62.943 107.221-126.293v0-85.333h-256v85.333c0 44.288 22.528 83.371 56.747 106.325-15.007 13.408-34.92 21.603-56.747 21.603-47.118 0-85.317-38.188-85.333-85.303v-256.001h682.667c23.564 0 42.667-19.103 42.667-42.667s-19.103-42.667-42.667-42.667v0-42.667c-0.005-110.808-70.387-205.176-168.884-240.844l-1.783-0.564v-20.651c0-23.564-19.103-42.667-42.667-42.667s-42.667 19.103-42.667 42.667v0 6.059h-256v-6.059c0-23.564-19.103-42.667-42.667-42.667s-42.667 19.103-42.667 42.667v0 20.651c-100.28 36.232-170.661 130.6-170.667 241.407v42.668c-23.564 0-42.667 19.103-42.667 42.667s19.103 42.667 42.667 42.667v0 256c0 0.003 0 0.005 0 0.008 0 94.257 76.41 170.667 170.667 170.667 63.532 0 118.956-34.714 148.338-86.21l0.441-0.839z" />
<glyph unicode="&#xe958;" glyph-name="battery" data-tags="battery" d="M896 576c23.564 0 42.667-19.103 42.667-42.667v0-170.667c0-23.564-19.103-42.667-42.667-42.667v0-42.667c0-47.128-38.205-85.333-85.333-85.333v0h-640c-47.128 0-85.333 38.205-85.333 85.333v0 341.333c0 47.128 38.205 85.333 85.333 85.333v0h640c47.128 0 85.333-38.205 85.333-85.333v0-42.667zM810.667 512v106.667h-640v-341.333h640v234.667z" />
<glyph unicode="&#xe959;" glyph-name="battery-charging" data-tags="battery-charging" d="M170.667 618.667v-341.333h640v341.333h-640zM896 576c23.564 0 42.667-19.103 42.667-42.667v0-170.667c0-23.564-19.103-42.667-42.667-42.667v0-42.667c0-47.128-38.205-85.333-85.333-85.333v0h-640c-47.128 0-85.333 38.205-85.333 85.333v0 341.333c0 47.128 38.205 85.333 85.333 85.333v0h640c47.128 0 85.333-38.205 85.333-85.333v0-42.667zM673.621 432.725c-6.147-16.499-21.766-28.039-40.081-28.039-5.23 0-10.24 0.941-14.87 2.663l0.295-0.096-160.427 58.368c-16.518 6.144-28.073 21.776-28.073 40.107 0 23.575 19.111 42.686 42.686 42.686 5.244 0 10.267-0.946 14.908-2.676l-0.295 0.096 160.384-58.411c16.507-6.143 28.052-21.766 28.052-40.086 0-5.244-0.946-10.267-2.677-14.908l0.096 0.295zM513.28 363.136c-6.133-16.527-21.766-28.090-40.099-28.090-5.239 0-10.257 0.944-14.894 2.672l0.295-0.096-160.384 58.325c-16.525 6.138-28.087 21.772-28.087 40.107 0 23.571 19.108 42.679 42.679 42.679 5.236 0 10.252-0.943 14.887-2.668l-0.295 0.096 160.384-58.411c16.519-6.137 28.076-21.766 28.076-40.094 0-5.225-0.939-10.23-2.658-14.857l0.096 0.295zM515.84 505.728v-128c0-23.564-19.103-42.667-42.667-42.667s-42.667 19.103-42.667 42.667v0 128c0 23.564 19.103 42.667 42.667 42.667s42.667-19.103 42.667-42.667v0z" />
<glyph unicode="&#xe95a;" glyph-name="battery-charging-f" data-tags="battery-charging-f" d="M896 576c23.564 0 42.667-19.103 42.667-42.667v0-170.667c0-23.564-19.103-42.667-42.667-42.667v0-42.667c0-47.128-38.205-85.333-85.333-85.333v0h-640c-47.128 0-85.333 38.205-85.333 85.333v0 341.333c0 47.128 38.205 85.333 85.333 85.333v0h640c47.128 0 85.333-38.205 85.333-85.333v0-42.667zM521.6 357.973c10.368 6.955 16.171 17.451 17.408 31.488v70.485l103.765-38.315c4.401-1.68 9.491-2.652 14.809-2.652 18.251 0 33.825 11.459 39.921 27.575l0.097 0.294c8.149 22.101-5.163 45.483-27.264 53.675-166.515 55.323-219.731 74.977-272.814 94.901l112.174-36.917c-18.816 6.955-32.213 0.213-43.947-8.704-7.765-5.973-12.416-17.408-13.909-34.389l1.835-63.573-103.595 37.419c-4.316 1.61-9.302 2.542-14.507 2.542-23.566 0-42.67-19.104-42.67-42.67 0-18.362 11.598-34.014 27.868-40.032l0.295-0.096c70.656-25.856 124.245-45.44 160.853-58.752 14.507-5.291 24.149-2.56 39.68 7.808z" />
<glyph unicode="&#xe95b;" glyph-name="battery-f" data-tags="battery-f" d="M170.667 704h640c47.128 0 85.333-38.205 85.333-85.333v0-341.333c0-47.128-38.205-85.333-85.333-85.333v0h-640c-47.128 0-85.333 38.205-85.333 85.333v0 341.333c0 47.128 38.205 85.333 85.333 85.333v0zM874.667 576h21.333c23.564 0 42.667-19.103 42.667-42.667v0-170.667c0-23.564-19.103-42.667-42.667-42.667v0h-21.333c-35.346 0-64 28.654-64 64v0 128c0 35.346 28.654 64 64 64v0z" />
<glyph unicode="&#xe95c;" glyph-name="battery-half" data-tags="battery-half" d="M170.667 618.667v-341.333h640v341.333h-640zM896 576c23.564 0 42.667-19.103 42.667-42.667v0-170.667c0-23.564-19.103-42.667-42.667-42.667v0-42.667c0-47.128-38.205-85.333-85.333-85.333v0h-640c-47.128 0-85.333 38.205-85.333 85.333v0 341.333c0 47.128 38.205 85.333 85.333 85.333v0h640c47.128 0 85.333-38.205 85.333-85.333v0-42.667zM469.333 618.667h85.333v-341.333h-85.333v341.333z" />
<glyph unicode="&#xe95d;" glyph-name="battery-half-f" data-tags="battery-half-f" d="M512 618.667v-341.333h298.667v341.333h-298.667zM896 576c23.564 0 42.667-19.103 42.667-42.667v0-170.667c0-23.564-19.103-42.667-42.667-42.667v0-42.667c0-47.128-38.205-85.333-85.333-85.333v0h-640c-47.128 0-85.333 38.205-85.333 85.333v0 341.333c0 47.128 38.205 85.333 85.333 85.333v0h640c47.128 0 85.333-38.205 85.333-85.333v0-42.667z" />
<glyph unicode="&#xe95e;" glyph-name="battery-one-quarter" data-tags="battery-one-quarter" d="M170.667 618.667v-341.333h640v341.333h-640zM896 576c23.564 0 42.667-19.103 42.667-42.667v0-170.667c0-23.564-19.103-42.667-42.667-42.667v0-42.667c0-47.128-38.205-85.333-85.333-85.333v0h-640c-47.128 0-85.333 38.205-85.333 85.333v0 341.333c0 47.128 38.205 85.333 85.333 85.333v0h640c47.128 0 85.333-38.205 85.333-85.333v0-42.667zM341.333 618.667h85.333v-341.333h-85.333v341.333z" />
<glyph unicode="&#xe95f;" glyph-name="battery-one-quarter-f" data-tags="battery-one-quarter-f" d="M426.667 618.667v-341.333h384v341.333h-384zM896 576c23.564 0 42.667-19.103 42.667-42.667v0-170.667c0-23.564-19.103-42.667-42.667-42.667v0-42.667c0-47.128-38.205-85.333-85.333-85.333v0h-640c-47.128 0-85.333 38.205-85.333 85.333v0 341.333c0 47.128 38.205 85.333 85.333 85.333v0h640c47.128 0 85.333-38.205 85.333-85.333v0-42.667z" />
<glyph unicode="&#xe960;" glyph-name="battery-three-quarters" data-tags="battery-three-quarters" d="M170.667 618.667v-341.333h640v341.333h-640zM896 576c23.564 0 42.667-19.103 42.667-42.667v0-170.667c0-23.564-19.103-42.667-42.667-42.667v0-42.667c0-47.128-38.205-85.333-85.333-85.333v0h-640c-47.128 0-85.333 38.205-85.333 85.333v0 341.333c0 47.128 38.205 85.333 85.333 85.333v0h640c47.128 0 85.333-38.205 85.333-85.333v0-42.667zM554.667 618.667h85.333v-341.333h-85.333v341.333z" />
<glyph unicode="&#xe961;" glyph-name="battery-three-quarters-f" data-tags="battery-three-quarters-f" d="M640 618.667v-341.333h170.667v341.333h-170.667zM896 576c23.564 0 42.667-19.103 42.667-42.667v0-170.667c0-23.564-19.103-42.667-42.667-42.667v0-42.667c0-47.128-38.205-85.333-85.333-85.333v0h-640c-47.128 0-85.333 38.205-85.333 85.333v0 341.333c0 47.128 38.205 85.333 85.333 85.333v0h640c47.128 0 85.333-38.205 85.333-85.333v0-42.667z" />
<glyph unicode="&#xe965;" glyph-name="beer" data-tags="beer" d="M256 576v-384c0-23.564 19.103-42.667 42.667-42.667v0h256c23.564 0 42.667 19.103 42.667 42.667v0 384h-341.333zM682.667 576h42.667c70.692 0 128-57.308 128-128v0-128c0-70.692-57.308-128-128-128v0h-42.667c0-70.692-57.308-128-128-128v0h-256c-70.692 0-128 57.308-128 128v0 384c0 47.128 38.205 85.333 85.333 85.333v0h341.333c47.128 0 85.333-38.205 85.333-85.333v0zM682.667 490.667v-213.333h42.667c23.564 0 42.667 19.103 42.667 42.667v0 128c0 23.564-19.103 42.667-42.667 42.667v0h-42.667zM341.333 490.667c23.564 0 42.667-19.103 42.667-42.667v0-170.667c0-23.564-19.103-42.667-42.667-42.667s-42.667 19.103-42.667 42.667v0 170.667c0 23.564 19.103 42.667 42.667 42.667v0zM512 490.667c23.564 0 42.667-19.103 42.667-42.667v0-170.667c0-23.564-19.103-42.667-42.667-42.667s-42.667 19.103-42.667 42.667v0 170.667c0 23.564 19.103 42.667 42.667 42.667v0zM448 832c106.039 0 192-85.961 192-192v0-64.384h-469.333v64.384c0 82.474 66.859 149.333 149.333 149.333 2.506 0 4.998-0.062 7.474-0.184l-0.348 0.014c32.609 26.674 74.719 42.838 120.603 42.838 0.096 0 0.191 0 0.286 0h-0.015zM256 661.333h298.667c0 47.128-38.205 85.333-85.333 85.333v0h-42.667c-0.005 0-0.012 0-0.018 0-31.953 0-59.804-17.562-74.427-43.561l-0.222-0.428c-3.167 0.84-6.804 1.323-10.553 1.323-0.040 0-0.080 0-0.12 0h-42.661c-23.564 0-42.667-19.103-42.667-42.667v0z" />
<glyph unicode="&#xe966;" glyph-name="beer-f" data-tags="beer-f" d="M682.667 192c0-70.692-57.308-128-128-128v0h-256c-70.692 0-128 57.308-128 128v0 384h554.667c70.692 0 128-57.308 128-128v0-128c0-70.692-57.308-128-128-128v0h-42.667zM172.16 661.333c10.801 72.788 72.853 128.001 147.802 128.001 2.52 0 5.025-0.062 7.514-0.186l-0.35 0.014c32.713 26.686 74.923 42.853 120.91 42.853 98.528 0 179.722-74.215 190.73-169.794l0.083-0.889h-466.688zM341.333 490.667c-23.564 0-42.667-19.103-42.667-42.667v0-170.667c0-23.564 19.103-42.667 42.667-42.667s42.667 19.103 42.667 42.667v0 170.667c0 23.564-19.103 42.667-42.667 42.667v0zM512 490.667c-23.564 0-42.667-19.103-42.667-42.667v0-170.667c0-23.564 19.103-42.667 42.667-42.667s42.667 19.103 42.667 42.667v0 170.667c0 23.564-19.103 42.667-42.667 42.667v0zM682.667 490.667v-213.333h42.667c23.564 0 42.667 19.103 42.667 42.667v0 128c0 23.564-19.103 42.667-42.667 42.667v0h-42.667z" />
<glyph unicode="&#xe96a;" glyph-name="bell" data-tags="bell" d="M711.083 371.968l-28.416 25.429v221.269c0 94.257-76.41 170.667-170.667 170.667s-170.667-76.41-170.667-170.667v0-221.269l-28.416-25.429c-40.291-36.068-70.566-82.532-86.656-135.19l-0.555-2.112h572.587c-16.644 54.769-46.92 101.234-86.927 137.051l-0.284 0.25zM640 149.333c0-70.692-57.308-128-128-128s-128 57.308-128 128v0h-256c0 0.122 0 0.267 0 0.411 0 113.425 49.297 215.336 127.635 285.476l0.365 0.321v183.125c0 141.385 114.615 256 256 256s256-114.615 256-256v0-183.125c78.703-70.461 128-172.372 128-285.797 0-0.145 0-0.289 0-0.434v0.022h-256zM512 106.667c23.564 0 42.667 19.103 42.667 42.667v0h-85.333c0-23.564 19.103-42.667 42.667-42.667v0z" />
<glyph unicode="&#xe96b;" glyph-name="bell-f" data-tags="bell-f" d="M896 149.333h-768c0 0.122 0 0.267 0 0.411 0 113.425 49.297 215.336 127.635 285.476l0.365 0.321v183.125c0 141.385 114.615 256 256 256s256-114.615 256-256v0-183.125c78.703-70.461 128-172.372 128-285.797 0-0.145 0-0.289 0-0.434v0.022zM391.253 106.667h241.493c-18.087-50.197-65.301-85.438-120.747-85.438s-102.659 35.241-120.465 84.546l-0.281 0.892z" />
<glyph unicode="&#xe96c;" glyph-name="bell-off" data-tags="bell-off" d="M640 128c0-70.692-57.308-128-128-128s-128 57.308-128 128v0h-99.968l85.333 85.333h428.928c-16.644 54.769-46.92 101.234-86.927 137.051l-0.284 0.25-28.416 25.429v150.613l84.907 84.907c0.299-4.693 0.427-9.472 0.427-14.251v-183.125c78.703-70.461 128-172.372 128-285.797 0-0.145 0-0.289 0-0.434v0.022h-256zM140.587 225.92c20.285 75.227 60.68 139.237 115.051 187.969l0.362 0.319v183.125c0 0.009 0 0.020 0 0.031 0 141.385 114.615 256 256 256 70.7 0 134.706-28.66 181.034-74.995l0.001-0.001-60.373-60.373c-30.883 30.874-73.542 49.969-120.661 49.969-94.244 0-170.646-76.389-170.667-170.628v-170.669l-200.747-200.747zM512 85.333c23.564 0 42.667 19.103 42.667 42.667v0h-85.333c0-23.564 19.103-42.667 42.667-42.667v0zM899.925 865.835c7.718-7.721 12.492-18.386 12.492-30.165s-4.774-22.445-12.492-30.165l-724.053-724.053c-7.771-8.049-18.657-13.047-30.71-13.047-23.564 0-42.667 19.103-42.667 42.667 0 12.032 4.98 22.901 12.992 30.657l724.064 724.064c7.723 7.731 18.396 12.514 30.187 12.514s22.464-4.782 30.186-12.513v0z" />
<glyph unicode="&#xe96d;" glyph-name="bell-off-f" data-tags="bell-off-f" d="M140.587 225.92c20.285 75.227 60.68 139.237 115.051 187.969l0.362 0.319v183.125c0 0.009 0 0.020 0 0.031 0 141.385 114.615 256 256 256 70.7 0 134.706-28.66 181.034-74.995l0.001-0.001-552.448-552.448zM767.616 611.584c0.256-4.693 0.384-9.472 0.384-14.251v-183.125c78.703-70.461 128-172.372 128-285.797 0-0.145 0-0.289 0-0.434v0.022h-611.968l483.541 483.584zM632.704 85.333c-18.121-50.133-65.304-85.317-120.704-85.317s-102.583 35.184-120.422 84.426l-0.282 0.891h241.408zM899.925 865.835c7.718-7.721 12.492-18.386 12.492-30.165s-4.774-22.445-12.492-30.165l-724.053-724.053c-7.771-8.049-18.657-13.047-30.71-13.047-23.564 0-42.667 19.103-42.667 42.667 0 12.032 4.98 22.901 12.992 30.657l724.064 724.064c7.723 7.731 18.396 12.514 30.187 12.514s22.464-4.782 30.186-12.513v0z" />
<glyph unicode="&#xe971;" glyph-name="birthday-cake" data-tags="birthday-cake" d="M170.667 138.155v-74.155h682.667v73.728l-132.523-32.128-207.36 42.837-212.352-42.837-130.432 32.555zM170.667 226.133l132.437-33.067 210.603 42.496 205.611-42.496 134.016 32.469v51.797c0 23.564-19.103 42.667-42.667 42.667v0h-597.333c-23.564 0-42.667-19.103-42.667-42.667v0-51.2zM640 405.333h170.667c70.692 0 128-57.308 128-128v0-298.667h-853.333v298.667c0 70.692 57.308 128 128 128v0h170.667v128h256v-128zM554.667 405.333v42.667h-85.333v-42.667h85.333zM512 558.933c-70.692 0-128 57.308-128 128v0c0 47.147 42.667 123.947 128 230.4 85.333-106.453 128-183.253 128-230.4 0-70.692-57.308-128-128-128v0zM511.915 643.456c23.552 0 42.667 20.48 42.667 45.739 0 16.811-14.251 44.245-42.667 82.261-28.459-38.016-42.667-65.451-42.667-82.261 0-25.259 19.115-45.739 42.667-45.739z" />
<glyph unicode="&#xe972;" glyph-name="birthday-cake-f" data-tags="birthday-cake-f" d="M938.667 247.765l-219.349-54.699-205.653 42.496-210.56-42.496-217.771 54.955v29.312c0 70.692 57.308 128 128 128v0h597.333c70.692 0 128-57.308 128-128v0-29.568zM938.667 159.744v-181.077h-853.333v181.333l215.765-54.4 212.395 42.837 207.317-42.837 217.856 54.144zM384 533.333h256v-85.333h-256v85.333zM512 558.933c-70.692 0-128 57.308-128 128v0c0 47.147 42.667 123.947 128 230.4 85.333-106.453 128-183.253 128-230.4 0-70.692-57.308-128-128-128v0z" />
<glyph unicode="&#xe976;" glyph-name="bluetooth" data-tags="bluetooth" d="M572.331 448l183.211-183.211c7.696-7.639 12.459-18.223 12.459-29.92 0-0.071 0-0.143-0.001-0.214v0.011c0-11.435-4.949-22.272-14.933-32.427l-211.072-168.875c-15.787-12.715-31.488-15.403-47.147-8.107s-24.149 20.139-25.515 38.485v281.259l-140.501-140.501c-7.769-8.036-18.647-13.026-30.69-13.026-23.564 0-42.667 19.103-42.667 42.667 0 12.043 4.989 22.92 13.014 30.678l183.18 183.18-183.168 183.168c-8.036 7.769-13.026 18.647-13.026 30.69 0 23.564 19.103 42.667 42.667 42.667 12.043 0 22.92-4.989 30.678-13.014l140.513-140.513v279.893c0 24.661 19.115 43.776 42.667 43.776 0.008 0 0.019 0 0.029 0 9.678 0 18.604-3.223 25.763-8.653l-0.106 0.077 209.493-167.595c12.501-7.979 20.821-21.589 20.821-37.163 0-14.080-6.827-26.581-17.365-34.347l-178.304-178.987zM554.667 152.747l106.795 85.461-106.795 106.795v-192.213zM661.461 657.835l-106.795 85.419v-192.213l106.795 106.795z" />
<glyph unicode="&#xe977;" glyph-name="bold" data-tags="bold" d="M448 428.587v-116.352h64c35.328 0 64 26.027 64 58.197 0 32.128-28.672 58.155-64 58.155h-64zM597.931 481.493c38.357-24.661 63.403-65.237 63.403-111.104 0-74.923-66.859-135.723-149.333-135.723h-149.333v387.84c0 21.504 19.115 38.827 42.667 38.827h85.333c70.699 0 128-52.096 128-116.352 0-23.467-7.637-45.227-20.736-63.531zM448 583.723v-77.568h42.667c23.552 0 42.667 17.365 42.667 38.784s-19.115 38.784-42.667 38.784h-42.667z" />
<glyph unicode="&#xe978;" glyph-name="book" data-tags="book" d="M426.667 106.667v-85.333h-85.333v85.333h-128v768h469.333c70.692 0 128-57.308 128-128v0-512c0-70.692-57.308-128-128-128v0h-256zM341.333 789.333h-42.667v-597.333h42.667v597.333zM426.667 789.333v-597.333h256c23.564 0 42.667 19.103 42.667 42.667v0 512c0 23.564-19.103 42.667-42.667 42.667v0h-256zM469.333 704h213.333v-85.333h-213.333v85.333zM469.333 576h213.333v-85.333h-213.333v85.333z" />
<glyph unicode="&#xe979;" glyph-name="book-f" data-tags="book-f" d="M426.667 106.667v725.333h-85.333v-725.333h-128v768h469.333c70.692 0 128-57.308 128-128v0-512c0-70.692-57.308-128-128-128v0h-256zM469.333 704v-85.333h213.333v85.333h-213.333zM469.333 576v-85.333h213.333v85.333h-213.333zM341.333 106.667h85.333v-85.333h-85.333v85.333z" />
<glyph unicode="&#xe97a;" glyph-name="bookmark" data-tags="bookmark" d="M341.333 789.333c-23.564 0-42.667-19.103-42.667-42.667v0-640l127.061 115.925c22.668 20.737 52.986 33.442 86.272 33.442s63.604-12.705 86.37-33.53l-0.098 0.088 127.061-115.925v640c0 23.564-19.103 42.667-42.667 42.667v0h-341.333zM341.333 874.667h341.333c70.692 0 128-57.308 128-128v0-640c-0.011-47.12-38.212-85.314-85.333-85.314-22.19 0-42.403 8.47-57.58 22.354l0.065-0.059-127.061 115.925c-7.556 6.912-17.662 11.147-28.757 11.147s-21.201-4.235-28.79-11.177l0.033 0.029-127.061-115.925c-15.112-13.825-35.324-22.295-57.515-22.295-47.121 0-85.322 38.194-85.333 85.313v640.001c0 70.692 57.308 128 128 128v0z" />
<glyph unicode="&#xe97b;" glyph-name="bookmark-f" data-tags="bookmark-f" d="M341.333 874.667h341.333c70.692 0 128-57.308 128-128v0-640c-0.011-47.12-38.212-85.314-85.333-85.314-22.19 0-42.403 8.47-57.58 22.354l0.065-0.059-127.061 115.925c-7.556 6.912-17.662 11.147-28.757 11.147s-21.201-4.235-28.79-11.177l0.033 0.029-127.061-115.925c-15.112-13.825-35.324-22.295-57.515-22.295-47.121 0-85.322 38.194-85.333 85.313v640.001c0 70.692 57.308 128 128 128v0z" />
<glyph unicode="&#xe97c;" glyph-name="bookmark-minus" data-tags="bookmark-minus" d="M341.333 789.333c-23.564 0-42.667-19.103-42.667-42.667v0-640l127.061 115.925c22.668 20.737 52.986 33.442 86.272 33.442s63.604-12.705 86.37-33.53l-0.098 0.088 127.061-115.925v640c0 23.564-19.103 42.667-42.667 42.667v0h-341.333zM341.333 874.667h341.333c70.692 0 128-57.308 128-128v0-640c-0.011-47.12-38.212-85.314-85.333-85.314-22.19 0-42.403 8.47-57.58 22.354l0.065-0.059-127.061 115.925c-7.556 6.912-17.662 11.147-28.757 11.147s-21.201-4.235-28.79-11.177l0.033 0.029-127.061-115.925c-15.112-13.825-35.324-22.295-57.515-22.295-47.121 0-85.322 38.194-85.333 85.313v640.001c0 70.692 57.308 128 128 128v0zM384 533.333h256c23.564 0 42.667-19.103 42.667-42.667s-19.103-42.667-42.667-42.667v0h-256c-23.564 0-42.667 19.103-42.667 42.667s19.103 42.667 42.667 42.667v0z" />
<glyph unicode="&#xe97d;" glyph-name="bookmark-minus-f" data-tags="bookmark-minus-f" d="M341.333 859.392h341.333c70.692 0 128-57.308 128-128v0-640c-0.011-47.12-38.212-85.314-85.333-85.314-22.19 0-42.403 8.47-57.58 22.354l0.065-0.059-127.061 115.925c-7.556 6.912-17.662 11.147-28.757 11.147s-21.201-4.235-28.79-11.177l0.033 0.029-127.061-115.925c-15.112-13.825-35.324-22.295-57.515-22.295-47.121 0-85.322 38.194-85.333 85.313v640.001c0 70.692 57.308 128 128 128v0zM384 518.059c-23.564 0-42.667-19.103-42.667-42.667s19.103-42.667 42.667-42.667v0h256c23.564 0 42.667 19.103 42.667 42.667s-19.103 42.667-42.667 42.667v0h-256z" />
<glyph unicode="&#xe97e;" glyph-name="bookmark-plus" data-tags="bookmark-plus" d="M341.333 789.333c-23.564 0-42.667-19.103-42.667-42.667v0-640l127.061 115.925c22.668 20.737 52.986 33.442 86.272 33.442s63.604-12.705 86.37-33.53l-0.098 0.088 127.061-115.925v640c0 23.564-19.103 42.667-42.667 42.667v0h-341.333zM341.333 874.667h341.333c70.692 0 128-57.308 128-128v0-640c-0.011-47.12-38.212-85.314-85.333-85.314-22.19 0-42.403 8.47-57.58 22.354l0.065-0.059-127.061 115.925c-7.556 6.912-17.662 11.147-28.757 11.147s-21.201-4.235-28.79-11.177l0.033 0.029-127.061-115.925c-15.112-13.825-35.324-22.295-57.515-22.295-47.121 0-85.322 38.194-85.333 85.313v640.001c0 70.692 57.308 128 128 128v0zM554.667 533.333h85.333c23.564 0 42.667-19.103 42.667-42.667s-19.103-42.667-42.667-42.667v0h-85.333v-85.333c0-23.564-19.103-42.667-42.667-42.667s-42.667 19.103-42.667 42.667v0 85.333h-85.333c-23.564 0-42.667 19.103-42.667 42.667s19.103 42.667 42.667 42.667v0h85.333v85.333c0 23.564 19.103 42.667 42.667 42.667s42.667-19.103 42.667-42.667v0-85.333z" />
<glyph unicode="&#xe97f;" glyph-name="bookmark-plus-f" data-tags="bookmark-plus-f" d="M554.667 518.059v85.333c0 23.564-19.103 42.667-42.667 42.667s-42.667-19.103-42.667-42.667v0-85.333h-85.333c-23.564 0-42.667-19.103-42.667-42.667s19.103-42.667 42.667-42.667v0h85.333v-85.333c0-23.564 19.103-42.667 42.667-42.667s42.667 19.103 42.667 42.667v0 85.333h85.333c23.564 0 42.667 19.103 42.667 42.667s-19.103 42.667-42.667 42.667v0h-85.333zM341.333 859.392h341.333c70.692 0 128-57.308 128-128v0-640c-0.011-47.12-38.212-85.314-85.333-85.314-22.19 0-42.403 8.47-57.58 22.354l0.065-0.059-127.061 115.925c-7.556 6.912-17.662 11.147-28.757 11.147s-21.201-4.235-28.79-11.177l0.033 0.029-127.061-115.925c-15.112-13.825-35.324-22.295-57.515-22.295-47.121 0-85.322 38.194-85.333 85.313v640.001c0 70.692 57.308 128 128 128v0z" />
<glyph unicode="&#xe980;" glyph-name="bookmark-remove" data-tags="bookmark-remove" d="M341.333 789.333c-23.564 0-42.667-19.103-42.667-42.667v0-640l127.061 115.925c22.668 20.737 52.986 33.442 86.272 33.442s63.604-12.705 86.37-33.53l-0.098 0.088 127.061-115.925v640c0 23.564-19.103 42.667-42.667 42.667v0h-341.333zM341.333 874.667h341.333c70.692 0 128-57.308 128-128v0-640c-0.011-47.12-38.212-85.314-85.333-85.314-22.19 0-42.403 8.47-57.58 22.354l0.065-0.059-127.061 115.925c-7.556 6.912-17.662 11.147-28.757 11.147s-21.201-4.235-28.79-11.177l0.033 0.029-127.061-115.925c-15.112-13.825-35.324-22.295-57.515-22.295-47.121 0-85.322 38.194-85.333 85.313v640.001c0 70.692 57.308 128 128 128v0zM572.331 490.667l60.331-60.331c8.036-7.769 13.026-18.647 13.026-30.69 0-23.564-19.103-42.667-42.667-42.667-12.043 0-22.92 4.989-30.678 13.014l-60.343 60.343-60.331-60.331c-7.665-7.41-18.12-11.977-29.641-11.977-23.564 0-42.667 19.103-42.667 42.667 0 11.521 4.567 21.976 11.989 29.653l60.319 60.319-60.331 60.331c-8.036 7.769-13.026 18.647-13.026 30.69 0 23.564 19.103 42.667 42.667 42.667 12.043 0 22.92-4.989 30.678-13.014l60.343-60.343 60.331 60.331c7.769 8.036 18.647 13.026 30.69 13.026 23.564 0 42.667-19.103 42.667-42.667 0-12.043-4.989-22.92-13.014-30.678l-60.343-60.343z" />
<glyph unicode="&#xe981;" glyph-name="bookmark-remove-f" data-tags="bookmark-remove-f" d="M572.331 475.392l60.331 60.331c7.729 7.724 12.51 18.397 12.51 30.187 0 23.569-19.106 42.675-42.675 42.675-11.779 0-22.444-4.772-30.166-12.489v0l-60.331-60.373-60.331 60.373c-7.722 7.716-18.386 12.489-30.165 12.489-23.569 0-42.675-19.106-42.675-42.675 0-11.79 4.781-22.463 12.51-30.186l60.331-60.331-60.331-60.331c-8.036-7.769-13.026-18.647-13.026-30.69 0-23.564 19.103-42.667 42.667-42.667 12.043 0 22.92 4.989 30.678 13.014l60.343 60.343 60.331-60.331c7.665-7.41 18.12-11.977 29.641-11.977 23.564 0 42.667 19.103 42.667 42.667 0 11.521-4.567 21.976-11.989 29.653l-60.319 60.319zM341.333 859.392h341.333c70.692 0 128-57.308 128-128v0-640c-0.011-47.12-38.212-85.314-85.333-85.314-22.19 0-42.403 8.47-57.58 22.354l0.065-0.059-127.061 115.925c-7.556 6.912-17.662 11.147-28.757 11.147s-21.201-4.235-28.79-11.177l0.033 0.029-127.061-115.925c-15.112-13.825-35.324-22.295-57.515-22.295-47.121 0-85.322 38.194-85.333 85.313v640.001c0 70.692 57.308 128 128 128v0z" />
<glyph unicode="&#xe982;" glyph-name="bottle" data-tags="bottle" d="M724.267 490.667h1.067v-384c0-47.128-38.205-85.333-85.333-85.333v0h-256c-47.128 0-85.333 38.205-85.333 85.333v0 384h1.067c4.012 34.696 17.884 65.567 38.703 90.421l-0.217-0.267 47.36 56.747c12.291 14.682 19.755 33.77 19.755 54.601 0 0.034 0 0.069 0 0.103v-0.005 139.733c0 23.564 19.103 42.667 42.667 42.667v0h128c23.564 0 42.667-19.103 42.667-42.667v0-139.776c0.010-20.841 7.489-39.933 19.906-54.746l-0.108 0.133 47.317-56.789c20.602-24.587 34.473-55.459 38.41-89.36l0.075-0.795zM637.824 490.667c-3.22 13.693-9.351 25.636-17.73 35.631l0.108-0.133-47.317 56.789c-24.607 29.372-39.552 67.567-39.552 109.252 0 0.006 0 0.012 0 0.018v-0.001 97.109h-42.667v-97.109c-0.006-41.676-14.95-79.861-39.769-109.493l0.217 0.267-47.36-56.832c-8.239-9.867-14.342-21.811-17.422-34.921l-0.114-0.578h251.648zM640 192h-256v-85.333h256v85.333zM384 405.333v-128h256v128h-256z" />
<glyph unicode="&#xe983;" glyph-name="bottle-f" data-tags="bottle-f" d="M724.267 490.667h-424.533c4.012 34.696 17.884 65.567 38.703 90.421l-0.217-0.267 47.36 56.747c12.291 14.682 19.755 33.77 19.755 54.601 0 0.034 0 0.069 0 0.103v-0.005 139.733c0 23.564 19.103 42.667 42.667 42.667v0h128c23.564 0 42.667-19.103 42.667-42.667v0-139.776c0.010-20.841 7.489-39.933 19.906-54.746l-0.108 0.133 47.317-56.789c20.602-24.587 34.473-55.459 38.41-89.36l0.075-0.795zM725.333 192v-85.333c0-47.128-38.205-85.333-85.333-85.333v0h-256c-47.128 0-85.333 38.205-85.333 85.333v0 85.333h426.667zM384 405.333h256v-128h-256v128z" />
<glyph unicode="&#xe984;" glyph-name="box" data-tags="box" d="M213.333 789.333h597.333c70.692 0 128-57.308 128-128v0-426.667c0-70.692-57.308-128-128-128v0h-597.333c-70.692 0-128 57.308-128 128v0 426.667c0 70.692 57.308 128 128 128v0zM213.333 704c-23.564 0-42.667-19.103-42.667-42.667v0-426.667c0-23.564 19.103-42.667 42.667-42.667v0h597.333c23.564 0 42.667 19.103 42.667 42.667v0 426.667c0 23.564-19.103 42.667-42.667 42.667v0h-597.333zM677.291 490.667c-19.689-74.156-86.212-127.912-165.291-127.912s-145.602 53.756-165.021 126.72l-0.27 1.192h-176.043v85.333h682.667v-85.333h-176.043zM585.899 490.667h-147.797c15.029-25.685 42.481-42.663 73.899-42.663s58.869 16.978 73.681 42.26l0.218 0.403z" />
<glyph unicode="&#xe985;" glyph-name="box-f" data-tags="box-f" d="M938.667 576h-853.333v85.333c0 70.692 57.308 128 128 128v0h597.333c70.692 0 128-57.308 128-128v0-85.333zM938.667 490.667v-256c0-70.692-57.308-128-128-128v0h-597.333c-70.692 0-128 57.308-128 128v0 256h261.376c19.689-74.156 86.212-127.912 165.291-127.912s145.602 53.756 165.021 126.72l0.27 1.192h261.376z" />
<glyph unicode="&#xe986;" glyph-name="branch" data-tags="branch" d="M298.667 106.667c23.564 0 42.667 19.103 42.667 42.667s-19.103 42.667-42.667 42.667v0c-23.564 0-42.667-19.103-42.667-42.667s19.103-42.667 42.667-42.667v0zM341.333 405.419v-135.381c50.164-18.105 85.376-65.303 85.376-120.725 0-70.716-57.327-128.043-128.043-128.043s-128.043 57.327-128.043 128.043c0 55.422 35.212 102.62 84.484 120.443l0.892 0.282v355.925c-50.164 18.105-85.376 65.303-85.376 120.725 0 70.716 57.327 128.043 128.043 128.043s128.043-57.327 128.043-128.043c0-55.422-35.212-102.62-84.484-120.443l-0.892-0.282v-99.84c13.312 4.693 27.605 7.253 42.539 7.296l257.579 0.256c23.546 0.024 42.624 19.117 42.624 42.667v0 49.152c-50.777 17.771-86.543 65.274-86.543 121.131 0 70.631 57.189 127.905 127.788 128.042h0.013c0.016 0 0.035 0 0.053 0 70.692 0 128-57.308 128-128 0-54.892-34.553-101.714-83.095-119.902l-0.883-0.29v-50.133c0-70.648-57.235-127.927-127.865-128l-257.586-0.256c-23.546-0.024-42.624-19.117-42.624-42.667v0zM298.667 704c23.564 0 42.667 19.103 42.667 42.667s-19.103 42.667-42.667 42.667v0c-23.564 0-42.667-19.103-42.667-42.667s19.103-42.667 42.667-42.667v0zM725.333 704c23.564 0 42.667 19.103 42.667 42.667s-19.103 42.667-42.667 42.667v0c-23.564 0-42.667-19.103-42.667-42.667s19.103-42.667 42.667-42.667v0z" />
<glyph unicode="&#xe987;" glyph-name="branch-f" data-tags="branch-f" d="M341.333 390.144v-135.381c50.164-18.105 85.376-65.303 85.376-120.725 0-70.716-57.327-128.043-128.043-128.043s-128.043 57.327-128.043 128.043c0 55.422 35.212 102.62 84.484 120.443l0.892 0.282v355.925c-50.164 18.105-85.376 65.303-85.376 120.725 0 70.716 57.327 128.043 128.043 128.043s128.043-57.327 128.043-128.043c0-55.422-35.212-102.62-84.484-120.443l-0.892-0.282v-99.84c13.312 4.693 27.605 7.253 42.539 7.296l257.579 0.256c23.546 0.024 42.624 19.117 42.624 42.667v0 49.109c-50.842 17.735-86.667 65.271-86.667 121.173 0 70.675 57.26 127.976 127.919 128.043h0.006c0.016 0 0.035 0 0.053 0 70.692 0 128-57.308 128-128 0-54.892-34.553-101.714-83.095-119.902l-0.883-0.29v-50.133c0-70.648-57.235-127.927-127.865-128l-257.586-0.256c-23.546-0.024-42.624-19.117-42.624-42.667v0z" />
<glyph unicode="&#xe988;" glyph-name="brightness" data-tags="brightness" d="M512 106.667c4.779 0 4.779 227.541 0 682.667-188.513 0-341.333-152.82-341.333-341.333s152.82-341.333 341.333-341.333v0zM512 21.333c-235.648 0-426.667 191.019-426.667 426.667s191.019 426.667 426.667 426.667 426.667-191.019 426.667-426.667-191.019-426.667-426.667-426.667z" />
<glyph unicode="&#xe989;" glyph-name="brightness-down" data-tags="brightness-down" d="M512 362.667c47.128 0 85.333 38.205 85.333 85.333s-38.205 85.333-85.333 85.333v0c-47.128 0-85.333-38.205-85.333-85.333s38.205-85.333 85.333-85.333v0zM512 277.333c-94.257 0-170.667 76.41-170.667 170.667s76.41 170.667 170.667 170.667v0c94.257 0 170.667-76.41 170.667-170.667s-76.41-170.667-170.667-170.667v0zM768 490.667h42.667c23.564 0 42.667-19.103 42.667-42.667s-19.103-42.667-42.667-42.667v0h-42.667c-23.564 0-42.667 19.103-42.667 42.667s19.103 42.667 42.667 42.667v0zM512 234.667c23.564 0 42.667-19.103 42.667-42.667v0-42.667c0-23.564-19.103-42.667-42.667-42.667s-42.667 19.103-42.667 42.667v0 42.667c0 23.564 19.103 42.667 42.667 42.667v0zM512 789.333c23.564 0 42.667-19.103 42.667-42.667v0-42.667c0-23.564-19.103-42.667-42.667-42.667s-42.667 19.103-42.667 42.667v0 42.667c0 23.564 19.103 42.667 42.667 42.667v0zM213.333 490.667h42.667c23.564 0 42.667-19.103 42.667-42.667s-19.103-42.667-42.667-42.667v0h-42.667c-23.564 0-42.667 19.103-42.667 42.667s19.103 42.667 42.667 42.667v0zM723.2 297.131l30.165-30.165c8.036-7.769 13.026-18.647 13.026-30.69 0-23.564-19.103-42.667-42.667-42.667-12.043 0-22.92 4.989-30.678 13.014l-30.177 30.177c-7.41 7.665-11.977 18.12-11.977 29.641 0 23.564 19.103 42.667 42.667 42.667 11.521 0 21.976-4.567 29.653-11.989l-0.012 0.012zM361.131 297.131c7.718-7.721 12.492-18.386 12.492-30.165s-4.774-22.445-12.492-30.165l-30.165-30.165c-7.665-7.41-18.12-11.977-29.641-11.977-23.564 0-42.667 19.103-42.667 42.667 0 11.521 4.567 21.976 11.989 29.653l30.153 30.153c7.721 7.718 18.386 12.492 30.165 12.492s22.445-4.774 30.165-12.492v0zM753.365 689.365c7.718-7.721 12.492-18.386 12.492-30.165s-4.774-22.445-12.492-30.165l-30.165-30.165c-7.665-7.41-18.12-11.977-29.641-11.977-23.564 0-42.667 19.103-42.667 42.667 0 11.521 4.567 21.976 11.989 29.653l30.153 30.153c7.721 7.718 18.386 12.492 30.165 12.492s22.445-4.774 30.165-12.492v0zM330.965 689.365l30.165-30.165c8.036-7.769 13.026-18.647 13.026-30.69 0-23.564-19.103-42.667-42.667-42.667-12.043 0-22.92 4.989-30.678 13.014l-30.177 30.177c-7.41 7.665-11.977 18.12-11.977 29.641 0 23.564 19.103 42.667 42.667 42.667 11.521 0 21.976-4.567 29.653-11.989l-0.012 0.012z" />
<glyph unicode="&#xe98a;" glyph-name="brightness-down-f" data-tags="brightness-down-f" d="M512 262.059c-94.257 0-170.667 76.41-170.667 170.667s76.41 170.667 170.667 170.667v0c94.257 0 170.667-76.41 170.667-170.667s-76.41-170.667-170.667-170.667v0zM768 475.392h42.667c23.564 0 42.667-19.103 42.667-42.667s-19.103-42.667-42.667-42.667v0h-42.667c-23.564 0-42.667 19.103-42.667 42.667s19.103 42.667 42.667 42.667v0zM512 219.392c23.564 0 42.667-19.103 42.667-42.667v0-42.667c0-23.564-19.103-42.667-42.667-42.667s-42.667 19.103-42.667 42.667v0 42.667c0 23.564 19.103 42.667 42.667 42.667v0zM512 774.059c23.564 0 42.667-19.103 42.667-42.667v0-42.667c0-23.564-19.103-42.667-42.667-42.667s-42.667 19.103-42.667 42.667v0 42.667c0 23.564 19.103 42.667 42.667 42.667v0zM213.333 475.392h42.667c23.564 0 42.667-19.103 42.667-42.667s-19.103-42.667-42.667-42.667v0h-42.667c-23.564 0-42.667 19.103-42.667 42.667s19.103 42.667 42.667 42.667v0zM723.2 281.899l30.165-30.208c8.036-7.769 13.026-18.647 13.026-30.69 0-23.564-19.103-42.667-42.667-42.667-12.043 0-22.92 4.989-30.678 13.014l-30.177 30.177c-7.729 7.724-12.51 18.397-12.51 30.187 0 23.569 19.106 42.675 42.675 42.675 11.779 0 22.444-4.772 30.166-12.489v0zM361.131 281.899c7.731-7.723 12.514-18.396 12.514-30.187s-4.782-22.464-12.513-30.186v0l-30.165-30.165c-7.722-7.716-18.386-12.489-30.165-12.489-23.569 0-42.675 19.106-42.675 42.675 0 11.79 4.781 22.463 12.51 30.186v0l30.165 30.208c7.721 7.718 18.386 12.492 30.165 12.492s22.445-4.774 30.165-12.492v0zM753.365 674.091c7.718-7.721 12.492-18.386 12.492-30.165s-4.774-22.445-12.492-30.165l-30.165-30.165c-7.665-7.41-18.12-11.977-29.641-11.977-23.564 0-42.667 19.103-42.667 42.667 0 11.521 4.567 21.976 11.989 29.653l30.153 30.153c7.721 7.718 18.386 12.492 30.165 12.492s22.445-4.774 30.165-12.492v0zM330.965 674.091l30.165-30.165c8.036-7.769 13.026-18.647 13.026-30.69 0-23.564-19.103-42.667-42.667-42.667-12.043 0-22.92 4.989-30.678 13.014l-30.177 30.177c-7.41 7.665-11.977 18.12-11.977 29.641 0 23.564 19.103 42.667 42.667 42.667 11.521 0 21.976-4.567 29.653-11.989l-0.012 0.012z" />
<glyph unicode="&#xe98b;" glyph-name="brightness-up" data-tags="brightness-up" d="M512 362.667c47.128 0 85.333 38.205 85.333 85.333s-38.205 85.333-85.333 85.333v0c-47.128 0-85.333-38.205-85.333-85.333s38.205-85.333 85.333-85.333v0zM512 277.333c-94.257 0-170.667 76.41-170.667 170.667s76.41 170.667 170.667 170.667v0c94.257 0 170.667-76.41 170.667-170.667s-76.41-170.667-170.667-170.667v0zM768 490.667h128c23.564 0 42.667-19.103 42.667-42.667s-19.103-42.667-42.667-42.667v0h-128c-23.564 0-42.667 19.103-42.667 42.667s19.103 42.667 42.667 42.667v0zM512 234.667c23.564 0 42.667-19.103 42.667-42.667v0-128c0-23.564-19.103-42.667-42.667-42.667s-42.667 19.103-42.667 42.667v0 128c0 23.564 19.103 42.667 42.667 42.667v0zM512 874.667c23.564 0 42.667-19.103 42.667-42.667v0-128c0-23.564-19.103-42.667-42.667-42.667s-42.667 19.103-42.667 42.667v0 128c0 23.564 19.103 42.667 42.667 42.667v0zM128 490.667h128c23.564 0 42.667-19.103 42.667-42.667s-19.103-42.667-42.667-42.667v0h-128c-23.564 0-42.667 19.103-42.667 42.667s19.103 42.667 42.667 42.667v0zM723.2 297.131l90.496-90.453c7.729-7.724 12.51-18.397 12.51-30.187 0-23.569-19.106-42.675-42.675-42.675-11.779 0-22.444 4.772-30.166 12.489l-90.496 90.496c-7.41 7.665-11.977 18.12-11.977 29.641 0 23.564 19.103 42.667 42.667 42.667 11.521 0 21.976-4.567 29.653-11.989l-0.012 0.012zM361.131 297.131c7.718-7.721 12.492-18.386 12.492-30.165s-4.774-22.445-12.492-30.165l-90.453-90.496c-7.724-7.729-18.397-12.51-30.187-12.51-23.569 0-42.675 19.106-42.675 42.675 0 11.779 4.772 22.444 12.489 30.166l90.496 90.496c7.721 7.718 18.386 12.492 30.165 12.492s22.445-4.774 30.165-12.492v0zM813.696 749.696c7.718-7.721 12.492-18.386 12.492-30.165s-4.774-22.445-12.492-30.165l-90.496-90.496c-7.665-7.41-18.12-11.977-29.641-11.977-23.564 0-42.667 19.103-42.667 42.667 0 11.521 4.567 21.976 11.989 29.653l90.441 90.484c7.723 7.731 18.396 12.514 30.187 12.514s22.464-4.782 30.186-12.513v0zM270.635 749.696l90.496-90.496c8.036-7.769 13.026-18.647 13.026-30.69 0-23.564-19.103-42.667-42.667-42.667-12.043 0-22.92 4.989-30.678 13.014l-90.465 90.465c-7.729 7.724-12.51 18.397-12.51 30.187 0 23.569 19.106 42.675 42.675 42.675 11.779 0 22.444-4.772 30.166-12.489v0z" />
<glyph unicode="&#xe98c;" glyph-name="brightness-up-f" data-tags="brightness-up-f" d="M512 262.059c-94.257 0-170.667 76.41-170.667 170.667s76.41 170.667 170.667 170.667v0c94.257 0 170.667-76.41 170.667-170.667s-76.41-170.667-170.667-170.667v0zM768 475.392h128c23.564 0 42.667-19.103 42.667-42.667s-19.103-42.667-42.667-42.667v0h-128c-23.564 0-42.667 19.103-42.667 42.667s19.103 42.667 42.667 42.667v0zM512 219.392c23.564 0 42.667-19.103 42.667-42.667v0-128c0-23.564-19.103-42.667-42.667-42.667s-42.667 19.103-42.667 42.667v0 128c0 23.564 19.103 42.667 42.667 42.667v0zM512 859.392c23.564 0 42.667-19.103 42.667-42.667v0-128c0-23.564-19.103-42.667-42.667-42.667s-42.667 19.103-42.667 42.667v0 128c0 23.564 19.103 42.667 42.667 42.667v0zM128 475.392h128c23.564 0 42.667-19.103 42.667-42.667s-19.103-42.667-42.667-42.667v0h-128c-23.564 0-42.667 19.103-42.667 42.667s19.103 42.667 42.667 42.667v0zM723.2 281.899l90.496-90.539c7.41-7.665 11.977-18.12 11.977-29.641 0-23.564-19.103-42.667-42.667-42.667-11.521 0-21.976 4.567-29.653 11.989l-90.484 90.484c-7.729 7.724-12.51 18.397-12.51 30.187 0 23.569 19.106 42.675 42.675 42.675 11.779 0 22.444-4.772 30.166-12.489v0zM361.131 281.899c7.731-7.723 12.514-18.396 12.514-30.187s-4.782-22.464-12.513-30.186v0l-90.453-90.453c-7.771-8.049-18.657-13.047-30.71-13.047-23.564 0-42.667 19.103-42.667 42.667 0 12.032 4.98 22.901 12.992 30.657l90.507 90.55c7.721 7.718 18.386 12.492 30.165 12.492s22.445-4.774 30.165-12.492v0zM813.696 734.421c7.718-7.721 12.492-18.386 12.492-30.165s-4.774-22.445-12.492-30.165l-90.496-90.496c-7.665-7.41-18.12-11.977-29.641-11.977-23.564 0-42.667 19.103-42.667 42.667 0 11.521 4.567 21.976 11.989 29.653l90.441 90.484c7.723 7.731 18.396 12.514 30.187 12.514s22.464-4.782 30.186-12.513v0zM270.635 734.421l90.496-90.496c8.036-7.769 13.026-18.647 13.026-30.69 0-23.564-19.103-42.667-42.667-42.667-12.043 0-22.92 4.989-30.678 13.014l-90.465 90.508c-7.41 7.665-11.977 18.12-11.977 29.641 0 23.564 19.103 42.667 42.667 42.667 11.521 0 21.976-4.567 29.653-11.989l-0.012 0.012z" />
<glyph unicode="&#xe98d;" glyph-name="browse" data-tags="browse" d="M102.4 652.8v-512h819.2v512h-819.2zM153.6 704c28.277 0 51.2 22.923 51.2 51.2s-22.923 51.2-51.2 51.2c-28.277 0-51.2-22.923-51.2-51.2s22.923-51.2 51.2-51.2zM307.2 704c28.277 0 51.2 22.923 51.2 51.2s-22.923 51.2-51.2 51.2c-28.277 0-51.2-22.923-51.2-51.2s22.923-51.2 51.2-51.2zM102.4 857.6h819.2c56.554 0 102.4-45.846 102.4-102.4v-614.4c0-56.554-45.846-102.4-102.4-102.4h-819.2c-56.554 0-102.4 45.846-102.4 102.4v614.4c0 56.554 45.846 102.4 102.4 102.4z" />
<glyph unicode="&#xe98e;" glyph-name="brush" data-tags="brush" d="M376.149 338.944c-43.008-19.797-72.107-42.795-88.917-68.181-11.17-16.183-26.88-40.621-42.114-65.384l-5.459-9.539c47.957-10.411 84.011-5.419 109.995 11.989 36.352 24.32 60.075 52.096 73.259 84.352l-46.763 46.763zM435.669 400.085l43.52-43.52c31.659 16.299 63.531 42.112 95.317 78.165 48.597 55.040 130.603 153.088 245.632 293.547 1.216 1.521 1.951 3.473 1.951 5.596 0 4.972-4.031 9.003-9.003 9.003-2.134 0-4.095-0.743-5.638-1.983l0.017 0.014c-140.203-114.901-238.208-196.907-293.589-245.675-36.224-31.829-62.037-63.616-78.208-95.147zM397.141 136.917c-68.907-46.123-163.243-41.899-282.88 12.715 38.038 68.85 71.767 123.832 107.52 177.345l-5.675-9.025c27.947 42.112 73.045 76.544 135.253 103.339 20.693 48.043 56.107 93.995 106.112 138.069 56.32 49.579 154.965 132.096 295.936 247.595 16.164 13.4 37.119 21.53 59.972 21.53 52.077 0 94.293-42.217 94.293-94.293 0-22.853-8.13-43.808-21.656-60.129l0.126 0.157c-115.627-141.227-198.187-239.829-247.637-295.893-41.728-47.275-85.333-81.536-130.859-102.741-18.347-55.381-55.168-101.547-110.507-138.624z" />
</font>
</defs>
</svg>
